<svg width="198" height="260" viewBox="0 0 198 260" fill="none" xmlns="http://www.w3.org/2000/svg">
<mask id="mask0_195_219" style="mask-type:luminance" maskUnits="userSpaceOnUse" x="-1" y="248" width="199" height="12">
<path d="M-0.00012207 248.036H197.552V260H-0.00012207V248.036Z" fill="white"/>
</mask>
<g mask="url(#mask0_195_219)">
<path d="M-0.000244141 260.007H197.552V248.564H-0.000244141V260.007Z" fill="#C8D6DC"/>
</g>
<mask id="mask1_195_219" style="mask-type:luminance" maskUnits="userSpaceOnUse" x="-1" y="256" width="199" height="4">
<path d="M-0.00012207 256.75H197.552V260H-0.00012207V256.75Z" fill="white"/>
</mask>
<g mask="url(#mask1_195_219)">
<path d="M197.552 260.007H-0.000244141V256.858H197.552V260.007Z" fill="#92A4AD"/>
</g>
<path d="M53.7129 84.0939C52.9952 86.8496 52.8056 89.9033 54.5457 92.3137C56.1572 94.5548 59.0822 95.8007 61.6009 97.3309C64.1129 98.8611 66.4962 101.177 66.0561 103.77C65.4671 107.27 60.5379 108.645 56.6921 110.06C52.4941 111.611 48.6145 114.19 46.8608 117.772C45.1139 121.354 46.0145 125.985 49.7046 128.28C54.566 131.307 63.0363 130.075 65.5618 134.706C67.004 137.36 65.4332 140.441 63.7337 142.98C61.1608 146.839 58.2223 150.563 56.4483 154.727C54.6743 158.891 54.1801 163.678 56.5092 167.639C59.2988 172.372 65.5415 174.999 71.6895 175.947C77.8441 176.895 84.1681 176.495 90.3973 176.929C87.0796 174.823 83.0915 173.618 79.4895 171.864C75.8941 170.111 72.4749 167.531 71.6624 164.091C70.3556 158.6 75.9145 153.847 80.7421 150.001C85.5697 146.155 90.5124 140.59 87.8244 135.471C86.802 133.521 84.8249 132.072 82.9493 130.65C80.566 128.842 78.2098 126.913 76.7947 124.482C75.3863 122.051 75.0816 119.004 76.7743 116.716C78.8733 113.886 83.3285 112.904 85.6983 110.229C89.3613 106.092 86.3754 100.039 82.103 96.3356C80.2275 94.7038 78.0337 93.1465 77.2348 90.9731C75.2171 85.4684 83.0103 80.9658 84.5811 75.3595C85.7186 71.297 82.9967 66.72 78.4671 65.0543C66.5436 60.6804 55.7509 76.3413 53.7129 84.0939Z" fill="#141A1B"/>
<mask id="mask2_195_219" style="mask-type:luminance" maskUnits="userSpaceOnUse" x="53" y="0" width="89" height="76">
<path d="M53.0155 0H141.416V75.4H53.0155V0Z" fill="white"/>
</mask>
<g mask="url(#mask2_195_219)">
<path d="M140.217 49.2578C140.217 76.463 118.902 75.0005 94.8727 75.0005C70.843 75.0005 53.1982 76.463 53.1982 49.2578C53.1982 22.0526 72.6779 0 96.7076 0C120.737 0 140.217 22.0526 140.217 49.2578Z" fill="#141A1B"/>
</g>
<path d="M110.5 123.378H89.1648V91.5283H110.5V123.378Z" fill="#F3AC71"/>
<path d="M110.5 123.378H89.1648V91.5283H110.5V123.378Z" fill="#F3AC71"/>
<path d="M110.771 93.0723C110.236 92.5983 109.68 92.1582 109.098 91.752H90.7966C90.1398 92.6186 89.5846 93.6546 89.1648 94.7514V102.26C90.2278 104.19 92.1507 105.592 94.0601 106.688C97.1815 108.496 100.587 109.898 104.149 110.155C106.39 110.318 108.699 109.986 110.771 109.099V93.0723Z" fill="#D6562B"/>
<path d="M128.625 34.8894C128.788 52.2566 114.86 66.4551 97.5269 66.6108C80.1935 66.7665 66.0154 52.8186 65.8597 35.4582C65.704 18.0978 79.6316 3.89932 96.9649 3.74359C114.298 3.58109 128.47 17.529 128.625 34.8894Z" fill="#F3AC71"/>
<path d="M128.943 69.6314C129.092 86.9919 115.172 101.19 97.8383 101.346C80.5049 101.502 66.3268 87.5606 66.1711 70.1934C66.0154 52.833 79.943 38.6346 97.2763 38.4788C114.61 38.3231 128.788 52.271 128.943 69.6314Z" fill="#F3AC71"/>
<path d="M128.964 72.2448L66.1983 72.8135L65.853 34.3823L128.619 33.8203L128.964 72.2448Z" fill="#F3AC71"/>
<path d="M138.342 57.9113C134.076 50.4905 127.671 60.0442 127.671 60.0442L125.734 77.5468C136.777 74.9942 142.607 65.3254 138.342 57.9113Z" fill="#F3AC71"/>
<path d="M128.28 64.0249C128.28 64.0249 131.476 58.0666 134.543 59.8541C137.61 61.6416 137.028 71.0192 127.691 73.0166L128.28 64.0249Z" fill="#E37748"/>
<path d="M57.2809 57.877C61.4112 50.3817 67.9856 59.8203 67.9856 59.8203L70.2471 77.289C59.1497 74.926 53.1507 65.3656 57.2809 57.877Z" fill="#F3AC71"/>
<path d="M67.4507 63.8085C67.4507 63.8085 64.1534 57.9111 61.12 59.7528C58.0799 61.5944 58.8315 70.9585 68.2023 72.7866L67.4507 63.8085Z" fill="#E37748"/>
<path d="M107.988 61.8652C108.008 64.4314 109.261 66.5033 110.778 66.4897C112.294 66.4762 113.499 64.384 113.479 61.8178C113.459 59.2449 112.206 57.173 110.69 57.1866C109.173 57.2001 107.961 59.2991 107.988 61.8652Z" fill="#100F0D"/>
<path d="M112.118 58.8389C112.416 59.0827 112.788 59.0759 113.127 58.9202C113.472 58.7712 113.743 58.4124 113.933 58.0332C114.115 57.6337 114.217 57.2004 114.237 56.7671C114.251 56.3337 114.224 55.9139 114.088 55.4941C113.736 56.2457 113.553 56.9296 113.276 57.478C113.018 58.0332 112.727 58.4665 112.118 58.8389Z" fill="#100F0D"/>
<path d="M84.6892 62.0476C84.7095 64.607 83.4975 66.6924 81.9876 66.7059C80.4642 66.7195 79.2184 64.6544 79.1913 62.095C79.171 59.5424 80.383 57.457 81.8996 57.4434C83.4163 57.4299 84.6689 59.4882 84.6892 62.0476Z" fill="#100F0D"/>
<path d="M80.4984 59.109C80.214 59.3595 79.8348 59.3595 79.503 59.2038C79.151 59.0684 78.8734 58.7163 78.677 58.3371C78.4874 57.9444 78.3791 57.5178 78.352 57.0845C78.3249 56.6579 78.352 56.2314 78.4739 55.8184C78.8395 56.5564 79.0359 57.2335 79.327 57.7684C79.5911 58.3236 79.889 58.7501 80.4984 59.109Z" fill="#100F0D"/>
<path d="M98.3529 65.46C98.3258 66.8412 98.1769 68.1954 97.9873 69.536C97.7977 70.8766 97.5539 72.2105 97.2831 73.5376L97.0732 74.5261L96.8565 75.5079L96.7956 75.7516L96.7618 75.9751C96.7414 76.1173 96.7008 76.2594 96.7076 76.4084C96.7008 76.5506 96.6737 76.6995 96.694 76.8485L96.7008 77.0652L96.7076 77.1803L96.7279 77.2886C96.8904 78.4735 97.5675 79.6449 98.4883 80.6605C98.1701 80.5251 97.8654 80.349 97.581 80.1391C97.4321 80.0443 97.3034 79.9225 97.168 79.8074C97.0394 79.6855 96.9039 79.5704 96.7888 79.435C96.3013 78.9001 95.9086 78.2568 95.692 77.5256C95.5836 77.16 95.5159 76.774 95.5091 76.3881C95.4888 76.1985 95.5091 76.0089 95.5295 75.8126L95.5565 75.5282L95.5904 75.2709C95.6378 74.9324 95.7055 74.6006 95.7597 74.262L95.956 73.26C96.2336 71.9261 96.5654 70.6126 96.9513 69.3126C97.344 68.0058 97.7774 66.7193 98.3529 65.46Z" fill="#D6562B"/>
<path d="M111.488 98.5156C109.843 99.5448 108.035 100.317 106.16 100.879C104.284 101.441 102.341 101.779 100.384 101.901C98.4275 102.023 96.4572 101.928 94.5275 101.603C92.6046 101.278 90.7088 100.736 88.9484 99.9172C90.8577 100.263 92.7468 100.54 94.6426 100.676C96.5385 100.818 98.4275 100.831 100.31 100.716C102.199 100.601 104.074 100.351 105.936 99.9781C107.798 99.6057 109.64 99.0911 111.488 98.5156Z" fill="#D6562B"/>
<path d="M134.34 45.4997C123.371 45.0867 112.517 41.857 103.099 36.2034C97.5878 32.8924 92.2659 28.3018 90.7695 22.0388C84.7164 34.2669 72.9419 43.5023 59.644 46.4612C57.6805 35.2284 62.0206 22.9325 69.8341 14.6315C73.4836 10.745 77.8711 7.49502 82.8003 5.47731C94.7305 0.595543 109.132 3.64919 119.031 11.9164C128.93 20.1836 133.69 32.608 134.34 45.4997Z" fill="#141A1B"/>
<path d="M75.5217 49.2382C76.3884 47.0579 78.765 45.5345 81.2499 45.4668C82.4889 45.4736 83.7144 45.7309 84.7571 46.2996C85.2988 46.5434 85.7592 46.9361 86.2264 47.2678C86.653 47.6741 87.0592 48.0871 87.4045 48.5475C86.8222 48.4189 86.3077 48.2293 85.7863 48.0668C85.2514 47.9449 84.7571 47.7553 84.2561 47.6538C83.2472 47.4168 82.2655 47.3017 81.304 47.322C80.3358 47.3152 79.3879 47.5387 78.4264 47.8501C77.465 48.1819 76.5238 48.6491 75.5217 49.2382Z" fill="#141A1B"/>
<path d="M106.085 47.4637C106.952 45.2835 109.322 43.7601 111.813 43.6924C113.045 43.6992 114.271 43.9564 115.32 44.5252C115.855 44.7757 116.316 45.1684 116.79 45.4934C117.21 45.8997 117.616 46.3127 117.968 46.7731C117.379 46.6512 116.864 46.4549 116.35 46.2924C115.815 46.1705 115.32 45.9809 114.813 45.8794C113.804 45.6424 112.829 45.534 111.861 45.5476C110.892 45.5476 109.951 45.7643 108.99 46.0757C108.028 46.4075 107.08 46.8747 106.085 47.4637Z" fill="#141A1B"/>
<path d="M86.2332 82.2988L109.193 82.1973C109.193 82.1973 110.012 94.0665 98.1431 94.1478C86.267 94.2223 86.2332 82.2988 86.2332 82.2988Z" fill="white"/>
<path d="M12.6544 209.382C10.3185 214.697 13.758 221.359 20.3393 224.257C26.9205 227.162 34.145 225.199 36.481 219.883C38.8237 214.562 35.3841 207.899 28.8028 205.001C22.2216 202.103 14.9971 204.06 12.6544 209.382Z" fill="#1C2034"/>
<path d="M47.4567 130.04C45.1208 135.362 48.5603 142.025 55.1416 144.923C61.7229 147.821 68.9473 145.864 71.2833 140.542C73.6192 135.227 70.1864 128.564 63.6051 125.666C57.0239 122.762 49.7926 124.725 47.4567 130.04Z" fill="#1C2034"/>
<path d="M47.4566 130.041L71.2832 140.543L36.2238 220.364L12.3905 209.862L47.4566 130.041Z" fill="#1C2034"/>
<path d="M88.0342 233.282L25.8644 224.907L29.3784 200.6C29.3784 200.6 80.1394 209.029 91.0946 206.206L88.0342 233.282Z" fill="#1C2034"/>
<path d="M184.891 209.382C187.227 214.697 183.787 221.359 177.206 224.257C170.625 227.162 163.4 225.199 161.064 219.883C158.728 214.562 162.168 207.899 168.742 205.001C175.324 202.103 182.555 204.06 184.891 209.382Z" fill="#1C2034"/>
<path d="M150.089 130.04C152.425 135.362 148.985 142.025 142.404 144.923C135.829 147.821 128.598 145.864 126.262 140.542C123.926 135.227 127.366 128.564 133.947 125.666C140.528 122.762 147.753 124.725 150.089 130.04Z" fill="#1C2034"/>
<path d="M150.089 130.041L126.262 140.543L161.329 220.364L185.155 209.862L150.089 130.041Z" fill="#1C2034"/>
<path d="M109.518 233.282L171.681 224.907L168.167 200.6C168.167 200.6 117.406 209.029 106.458 206.206L109.518 233.282Z" fill="#1C2034"/>
<path d="M138.301 190.565C139.763 188.012 142.519 186.401 143.927 183.692C148.762 174.396 144.55 164.05 138.761 156.257L144.273 124.109L122.03 115.991L110.534 126.431L95.4482 126.188L81.0737 115.632L75.3388 116.424L75.1831 115.991L52.9409 124.109L58.4523 156.257C52.6633 164.05 48.4518 174.396 53.293 183.692C54.6945 186.401 57.457 188.012 58.9127 190.571C63.4424 198.52 61.9935 209.015 59.9961 217.506C59.3461 220.248 59.1903 220.654 61.6143 222.367C63.7065 223.843 66.0153 224.988 68.3987 225.895C73.1112 227.689 78.1419 228.542 83.132 229.111C101.515 231.21 120.791 229.876 137.366 221.636C135.687 218.467 136.188 215.258 135.762 211.832C135.369 208.643 135.295 205.433 135.586 202.238C135.911 198.588 136.452 193.808 138.301 190.565Z" fill="#232847"/>
<path d="M88.8195 113.012L74.1335 118.212C74.1335 118.212 79.1575 138.795 99.8153 138.795C120.473 138.795 128.293 119.952 128.293 119.952L110.371 112.531L88.8195 113.012Z" fill="#F3AC71"/>
<path d="M71.6827 121.537L77.0656 215.178H120.121L125.206 123.562L106.58 140.299L92.7468 138.796L71.6827 121.537Z" fill="#C8C8CD"/>
<path d="M119.437 113.039L98.6101 138.795L107.663 157.713L132.2 118.578L119.437 113.039Z" fill="white"/>
<path d="M79.0223 113.039L100.851 138.741L90.7968 157.713L66.2593 118.578L79.0223 113.039Z" fill="white"/>
<path d="M158.999 243.533H40.0153L26.9544 175.148C25.6815 168.472 30.7934 162.283 37.5778 162.283H163.448C170.361 162.283 175.493 168.688 174.003 175.452L158.999 243.533Z" fill="#3A4752"/>
<path d="M159.277 252.2H39.3653C38.4377 252.2 37.6726 251.435 37.6726 250.5V245.233C37.6726 244.298 38.4377 243.533 39.3653 243.533H159.277C160.211 243.533 160.969 244.298 160.969 245.233V250.5C160.969 251.435 160.211 252.2 159.277 252.2Z" fill="#343C3F"/>
<path d="M101.765 221.887C94.5476 221.887 88.6976 216.03 88.6976 208.799C88.6976 201.568 94.5476 195.711 101.765 195.711C108.983 195.711 114.84 201.568 114.84 208.799C114.84 216.03 108.983 221.887 101.765 221.887Z" fill="#737F87"/>
<path d="M77.2753 90.77C75.0138 90.6075 72.9014 90.0387 70.9378 89.0705C66.6722 86.958 63.9909 83.295 62.4878 80.5934C60.8763 77.682 60.2602 75.2851 60.2399 75.1835C60.1451 74.8315 60.3618 74.4726 60.7139 74.3846C61.0727 74.2898 61.4316 74.5065 61.5196 74.8653C61.5467 74.9804 63.9503 84.1414 71.5336 87.8856C76.3816 90.2825 82.3128 89.9981 89.1649 87.046C89.5034 86.8971 89.8894 87.0528 90.0316 87.3914C90.1805 87.7231 90.0248 88.1158 89.6862 88.258C85.1769 90.2012 81.0264 91.0408 77.2753 90.77Z" fill="#1B1918"/>
<path d="M92.4149 89.0905C92.2591 91.2775 90.3633 92.9228 88.1763 92.7603C85.9961 92.6045 84.3576 90.7019 84.5133 88.515C84.669 86.3347 86.5649 84.6894 88.7518 84.8452C90.932 85.0077 92.5706 86.9035 92.4149 89.0905Z" fill="#1B1918"/>
<path d="M54.9113 62.1023C53.9363 47.8971 56.5701 43.0628 56.5701 43.0628L53.3472 40.2461C46.5358 42.0133 51.4582 70.0987 51.4582 70.0987C51.0113 73.7753 55.2904 72.4346 55.2904 72.4346L54.9113 62.1023Z" fill="#939897"/>
<path d="M59.4883 53.673C59.4883 53.673 59.0144 51.7365 57.9378 53.5646C56.8612 55.386 54.7894 58.6969 54.7894 58.6969L55.2904 72.4349C55.2904 72.4349 59.4206 79.9235 60.592 76.8224C61.7633 73.7146 59.4883 53.673 59.4883 53.673Z" fill="#1B1918"/>
<path d="M61.0728 53.5571C61.0728 53.5571 60.1249 52.0405 59.1228 53.4149C58.1208 54.7962 58.8859 74.7972 60.2062 77.2009C60.2062 77.2009 62.2307 78.5686 62.427 75.8196C62.6234 73.0774 63.0702 66.8686 63.0702 66.8686L61.0728 53.5571Z" fill="#939494"/>
<path d="M64.0857 53.0433C63.456 52.874 61.7769 52.5423 61.0727 53.5579C60.9915 53.6798 60.9441 53.8219 60.9305 53.9709C60.768 55.7787 59.6373 69.9094 62.2441 77.1204C62.2441 77.1204 64.7831 78.2105 66.1712 76.5042C67.0378 75.4344 67.1732 72.8277 67.0988 70.4443C67.031 68.0068 67.0649 65.5626 67.18 63.1251C67.356 59.3334 67.1394 53.8626 64.5529 53.1652C64.3972 53.1245 64.2415 53.0839 64.0857 53.0433Z" fill="#1B1918"/>
<path d="M139.323 65.9885C142.329 52.0745 140.42 46.9016 140.42 46.9016L144.009 44.5859C150.502 47.3214 141.591 74.3979 141.591 74.3979C141.503 78.1016 137.468 76.1583 137.468 76.1583L139.323 65.9885Z" fill="#939897"/>
<path d="M136.006 56.9896C136.006 56.9896 136.75 55.1411 137.556 57.0979C138.369 59.0614 139.939 62.6297 139.939 62.6297L137.468 76.1578C137.468 76.1578 132.302 82.976 131.591 79.7328C130.873 76.4963 136.006 56.9896 136.006 56.9896Z" fill="#1B1918"/>
<path d="M134.455 56.645C134.455 56.645 135.613 55.2773 136.405 56.7872C137.204 58.2971 133.568 77.9799 131.923 80.1669C131.923 80.1669 129.722 81.2299 129.919 78.4809C130.115 75.7387 130.562 69.5299 130.562 69.5299L134.455 56.645Z" fill="#939494"/>
<path d="M131.544 55.7037C132.2 55.6292 133.9 55.5412 134.455 56.6449C134.523 56.7803 134.55 56.9292 134.536 57.0782C134.435 58.886 133.527 73.0371 129.912 79.7943C129.912 79.7943 127.244 80.5053 126.113 78.6162C125.409 77.4313 125.653 74.8381 126.066 72.4886C126.486 70.085 126.797 67.661 127.041 65.2303C127.413 61.4522 128.409 56.0693 131.063 55.7579C131.225 55.7376 131.388 55.724 131.544 55.7037Z" fill="#1B1918"/>
<path d="M55.5342 45.6283L51.8441 44.1725L58.7638 26.6158C60.9102 21.1653 64.4243 16.3173 68.9269 12.5934C73.4498 8.85588 78.88 6.33036 84.6217 5.29442C91.7784 4.00119 99.504 4.10952 106.972 5.59911C120.378 8.28713 131.767 17.4007 137.427 29.9876L145.938 48.8986L142.323 50.5304L133.812 31.6194C128.673 20.197 118.347 11.9298 106.194 9.49911C99.3076 8.12463 91.9003 8.01629 85.3258 9.20796C75.0748 11.0564 66.3066 18.2876 62.4472 28.0783L55.5342 45.6283Z" fill="#939897"/>
<path d="M59.8064 31.9987C59.4137 31.9716 59.021 31.8836 58.6351 31.7346C56.597 30.9289 55.6017 28.62 56.4007 26.582C58.6757 20.8133 62.3929 15.6878 67.1528 11.7539C71.9398 7.79974 77.6814 5.13203 83.7549 4.03515C91.1554 2.69453 99.1382 2.80286 106.843 4.34661C120.879 7.14974 132.796 16.6898 138.72 29.8591C139.621 31.8565 138.734 34.2128 136.737 35.1133C134.739 36.0138 132.39 35.1268 131.489 33.1227C126.614 22.2893 116.824 14.4419 105.293 12.1398C98.6439 10.806 91.4939 10.7044 85.1632 11.8487C75.5757 13.582 67.383 20.3393 63.7809 29.4935C63.1309 31.1523 61.4856 32.1206 59.8064 31.9987Z" fill="#1B1918"/>
</svg>
