<svg width="200" height="173" viewBox="0 0 200 173" fill="none" xmlns="http://www.w3.org/2000/svg">
<path fill-rule="evenodd" clip-rule="evenodd" d="M76.5308 97.7395C76.5308 97.7395 109.197 76.902 113.704 66.3911C118.208 55.8825 100.935 42.1777 76.5308 42.1777C52.1269 42.1777 34.8575 55.8825 39.3624 66.3911C43.8672 76.902 76.5308 97.7395 76.5308 97.7395Z" fill="black"/>
<path fill-rule="evenodd" clip-rule="evenodd" d="M76.5307 42.8132C52.6861 42.8132 35.8027 56.2048 40.2067 66.4768C44.6085 76.7488 76.5307 97.1045 76.5307 97.1045C76.5307 97.1045 108.455 76.7488 112.859 66.4768C117.261 56.2048 100.38 42.8132 76.5307 42.8132ZM76.5307 172.86H40.0247C40.0247 172.86 -1.25163 175.429 0.0292042 158.555C1.31662 141.68 14.8926 89.2203 36.3576 71.9776C26.9992 55.8367 33.9714 39.3301 45.1634 23.9188C68.3259 -7.97292 84.7378 -7.97292 107.9 23.9188C119.094 39.3301 126.065 55.8367 116.706 71.9776C138.171 89.2203 151.747 141.68 153.034 158.555C154.318 175.429 113.041 172.86 113.041 172.86H76.5307Z" fill="#213140"/>
<path fill-rule="evenodd" clip-rule="evenodd" d="M29.3767 102.248H123.687C125.538 102.248 127.133 102.947 128.387 104.309C129.642 105.67 130.212 107.317 130.058 109.164L125.286 167.136C125.012 170.459 122.251 173 118.917 173H34.1491C30.8088 173 28.052 170.459 27.7778 167.136L23.0076 109.164C22.854 107.317 23.4221 105.67 24.6766 104.309C25.9311 102.947 27.5256 102.248 29.3767 102.248Z" fill="#738494"/>
<path d="M87.078 137.625C87.078 137.969 87.0626 138.315 87.0275 138.659C86.9946 139.003 86.9442 139.343 86.8762 139.682C86.8082 140.022 86.7249 140.355 86.624 140.686C86.5253 141.016 86.4069 141.341 86.2753 141.66C86.1437 141.98 85.9967 142.291 85.8322 142.596C85.6699 142.9 85.4923 143.196 85.3015 143.483C85.1085 143.772 84.9045 144.048 84.6852 144.315C84.4659 144.583 84.2334 144.839 83.9899 145.082C83.7443 145.328 83.4899 145.558 83.2223 145.777C82.9547 145.996 82.6784 146.202 82.3911 146.394C82.1038 146.585 81.8077 146.762 81.5028 146.927C81.198 147.089 80.8865 147.236 80.5663 147.369C80.2483 147.501 79.9237 147.617 79.5925 147.718C79.2614 147.818 78.9258 147.902 78.588 147.97C78.2481 148.035 77.9082 148.088 77.5638 148.121C77.2195 148.154 76.8751 148.171 76.5308 148.171C76.1843 148.171 75.8399 148.154 75.4956 148.121C75.1513 148.088 74.8113 148.035 74.4714 147.97C74.1336 147.902 73.7981 147.818 73.4669 147.718C73.1379 147.617 72.8133 147.501 72.4931 147.369C72.1729 147.236 71.8615 147.089 71.5566 146.927C71.2517 146.762 70.9557 146.585 70.6683 146.394C70.381 146.202 70.1047 145.996 69.8371 145.777C69.5717 145.558 69.3151 145.328 69.0717 145.082C68.826 144.839 68.5958 144.583 68.3764 144.315C68.1571 144.048 67.951 143.772 67.7579 143.483C67.5671 143.196 67.3895 142.9 67.2272 142.596C67.0649 142.291 66.9158 141.98 66.7842 141.66C66.6526 141.341 66.5363 141.016 66.4354 140.686C66.3346 140.355 66.2512 140.022 66.1832 139.682C66.1174 139.343 66.0648 139.003 66.0319 138.659C65.999 138.315 65.9814 137.969 65.9814 137.625C65.9814 137.279 65.999 136.935 66.0319 136.591C66.0648 136.247 66.1174 135.906 66.1832 135.566C66.2512 135.229 66.3346 134.893 66.4354 134.563C66.5363 134.232 66.6526 133.908 66.7842 133.588C66.9158 133.27 67.0649 132.957 67.2272 132.652C67.3895 132.348 67.5671 132.052 67.7579 131.765C67.951 131.478 68.1571 131.2 68.3764 130.933C68.5958 130.665 68.826 130.411 69.0717 130.166C69.3151 129.923 69.5717 129.691 69.8371 129.472C70.1047 129.252 70.381 129.047 70.6683 128.854C70.9557 128.663 71.2517 128.486 71.5566 128.324C71.8615 128.159 72.1729 128.013 72.4931 127.881C72.8133 127.747 73.1379 127.631 73.4669 127.531C73.7981 127.432 74.1336 127.347 74.4714 127.281C74.8113 127.213 75.1513 127.163 75.4956 127.128C75.8399 127.095 76.1843 127.077 76.5308 127.077C76.8751 127.077 77.2195 127.095 77.5638 127.128C77.9082 127.163 78.2481 127.213 78.588 127.281C78.9258 127.347 79.2614 127.432 79.5925 127.531C79.9237 127.631 80.2483 127.747 80.5663 127.881C80.8865 128.013 81.198 128.159 81.5028 128.324C81.8077 128.486 82.1038 128.663 82.3911 128.854C82.6784 129.047 82.9547 129.252 83.2223 129.472C83.4899 129.691 83.7443 129.923 83.9899 130.166C84.2334 130.411 84.4659 130.665 84.6852 130.933C84.9045 131.2 85.1085 131.478 85.3015 131.765C85.4923 132.052 85.6699 132.348 85.8322 132.652C85.9967 132.957 86.1437 133.27 86.2753 133.588C86.4069 133.908 86.5253 134.232 86.624 134.563C86.7249 134.893 86.8082 135.229 86.8762 135.566C86.9442 135.906 86.9946 136.247 87.0275 136.591C87.0626 136.935 87.078 137.279 87.078 137.625Z" fill="#FEFEFE"/>
<mask id="mask0_166_577" style="mask-type:luminance" maskUnits="userSpaceOnUse" x="132" y="20" width="68" height="59">
<path d="M132.528 20.2734H200V78.5977H132.528V20.2734Z" fill="white"/>
</mask>
<g mask="url(#mask0_166_577)">
<path fill-rule="evenodd" clip-rule="evenodd" d="M137.322 20.501H195.23C195.541 20.501 195.848 20.5448 196.153 20.6302C196.458 20.7157 196.754 20.8427 197.041 21.0136C197.329 21.1823 197.601 21.3882 197.859 21.6335C198.118 21.8789 198.357 22.1571 198.577 22.4682C198.796 22.7815 198.993 23.121 199.164 23.4869C199.338 23.8549 199.485 24.2404 199.603 24.6479C199.721 25.0576 199.811 25.476 199.873 25.9097C199.932 26.3413 199.963 26.7794 199.963 27.2197V71.469C199.963 71.9115 199.932 72.3474 199.873 72.7812C199.811 73.2127 199.721 73.6333 199.603 74.0408C199.485 74.4483 199.338 74.836 199.164 75.2019C198.993 75.5699 198.796 75.9094 198.577 76.2205C198.357 76.5316 198.118 76.812 197.859 77.0552C197.601 77.3005 197.329 77.5086 197.041 77.6773C196.754 77.846 196.458 77.9731 196.153 78.0585C195.848 78.1461 195.541 78.1877 195.23 78.1877H137.322C137.013 78.1877 136.704 78.1461 136.399 78.0585C136.094 77.9731 135.798 77.846 135.511 77.6773C135.223 77.5086 134.951 77.3005 134.693 77.0552C134.434 76.812 134.195 76.5316 133.975 76.2205C133.756 75.9094 133.561 75.5699 133.388 75.2019C133.214 74.836 133.07 74.4483 132.949 74.0408C132.831 73.6333 132.741 73.2127 132.681 72.7812C132.62 72.3474 132.589 71.9115 132.589 71.469V27.2197C132.589 26.7794 132.62 26.3413 132.681 25.9097C132.741 25.476 132.831 25.0576 132.949 24.6479C133.07 24.2404 133.214 23.8549 133.388 23.4869C133.561 23.121 133.756 22.7815 133.975 22.4682C134.195 22.1571 134.434 21.8789 134.693 21.6335C134.951 21.3882 135.223 21.1823 135.511 21.0136C135.798 20.8427 136.094 20.7157 136.399 20.6302C136.704 20.5448 137.013 20.501 137.322 20.501Z" fill="#D60052"/>
</g>
<path fill-rule="evenodd" clip-rule="evenodd" d="M140.191 64.9517L156 75.423L140.191 91.2309V64.9517Z" fill="#D60052"/>
<path fill-rule="evenodd" clip-rule="evenodd" d="M166.251 50.1145C166.251 50.1145 167.198 50.66 167.51 49.6436C167.828 48.6271 166.251 46.6642 166.251 46.6642C166.251 46.6642 164.678 48.6271 164.992 49.6436C165.308 50.66 166.251 50.1145 166.251 50.1145ZM173.129 31.15C177.484 34.9968 176.594 39.1612 175.456 44.2304C175.456 44.2304 176.693 45.512 175.82 47.8165C174.947 50.1145 172.308 50.1386 171.534 50.1145C170.756 50.0904 170.905 52.441 170.512 53.0698C170.126 53.7007 167.97 54.5484 166.251 54.6186C164.529 54.5484 162.375 53.7007 161.987 53.0698C161.601 52.441 161.746 50.0904 160.972 50.1145C160.197 50.1386 157.557 50.1145 156.686 47.8165C155.813 45.512 157.05 44.2304 157.05 44.2304C155.912 39.1612 155.021 34.9968 159.373 31.15C162.772 28.1531 169.734 28.1531 173.129 31.15ZM164.702 45.731C164.946 46.5898 164.301 46.9447 163.452 47.3915C162.608 47.8384 160.333 48.3839 159.59 47.5734C158.855 46.7628 158.256 44.5415 158.998 43.9413C159.735 43.3344 161.298 42.4494 162.185 43.0321C163.066 43.6148 164.702 45.731 164.702 45.731ZM167.804 45.731C167.56 46.5898 168.2 46.9447 169.049 47.3915C169.898 47.8384 172.172 48.3839 172.914 47.5734C173.651 46.7628 174.243 44.5415 173.506 43.9413C172.769 43.3344 171.203 42.4494 170.321 43.0321C169.435 43.6148 167.804 45.731 167.804 45.731Z" fill="#FEFEFE"/>
<path fill-rule="evenodd" clip-rule="evenodd" d="M175.269 56.912C170.718 59.1969 162.318 63.4731 158.219 67.0175C157.381 67.7449 156.868 69.39 155.87 69.734C155.166 69.9728 154.526 69.39 154.289 68.275C154.046 67.1621 153.763 67.2125 152.848 66.402C151.173 64.9145 155.193 64.3953 156.024 64.1346C161.307 62.461 170.014 56.8091 174.212 53.9612C175.791 52.8878 175.592 51.7048 176.925 50.9578C178.246 50.2173 178.292 52.1561 178.566 52.9863C178.842 53.8078 180.61 54.3095 179.965 55.3325C179.463 56.1299 177.638 55.7291 175.269 56.912Z" fill="#FEFEFE"/>
<path fill-rule="evenodd" clip-rule="evenodd" d="M158.934 54.1348C163.187 56.9323 171.091 62.065 176.208 63.8416C177.261 64.2053 178.941 63.8285 179.737 64.5229C180.296 65.0071 180.105 65.857 179.261 66.6216C178.417 67.3861 178.605 67.6052 178.357 68.8035C177.91 70.9941 175.451 67.7717 174.813 67.1846C170.718 63.4451 161.47 58.7352 156.905 56.527C155.184 55.6924 154.26 56.4569 152.94 55.677C151.644 54.9037 153.3 53.8916 153.879 53.2432C154.456 52.5904 154.008 50.8094 155.212 50.8554C156.153 50.8926 156.719 52.6736 158.934 54.1348Z" fill="#FEFEFE"/>
</svg>
