<svg width="149" height="160" viewBox="0 0 149 160" fill="none" xmlns="http://www.w3.org/2000/svg">
<mask id="mask0_160_232" style="mask-type:luminance" maskUnits="userSpaceOnUse" x="30" y="0" width="68" height="73">
<path d="M30.9343 0H97.4429V72.184H30.9343V0Z" fill="white"/>
</mask>
<g mask="url(#mask0_160_232)">
<path d="M93.4069 72.1639C91.3265 72.1639 89.6389 70.4771 89.6389 68.3957V32.8704C89.6389 18.8889 78.2621 7.51207 64.2852 7.51207C50.3004 7.51207 38.9236 18.8889 38.9236 32.8704V68.3957C38.9236 70.4771 37.2339 72.1639 35.1615 72.1639C33.0731 72.1639 31.3934 70.4771 31.3934 68.3957V32.8704C31.3934 14.7363 46.1456 -0.0161133 64.2852 -0.0161133C82.4229 -0.0161133 97.1771 14.7363 97.1771 32.8704V68.3957C97.1771 70.4771 95.4954 72.1639 93.4069 72.1639Z" fill="#100F0F"/>
</g>
<mask id="mask1_160_232" style="mask-type:luminance" maskUnits="userSpaceOnUse" x="0" y="44" width="135" height="116">
<path d="M0 44.3579H134.048V160H0V44.3579Z" fill="white"/>
</mask>
<g mask="url(#mask1_160_232)">
<path d="M134.002 150.869C134.002 155.902 129.879 160.016 124.847 160.016H9.3124C4.27954 160.016 0.165039 155.902 0.165039 150.869L0.26775 53.8484C0.26775 48.8162 4.3903 44.6938 9.42316 44.6938H122.663C127.696 44.6938 131.819 48.8162 131.819 53.8484L134.002 150.869Z" fill="#F58013"/>
</g>
<mask id="mask2_160_232" style="mask-type:luminance" maskUnits="userSpaceOnUse" x="14" y="44" width="135" height="116">
<path d="M14.9515 44.3579H149V160H14.9515V44.3579Z" fill="white"/>
</mask>
<g mask="url(#mask2_160_232)">
<path d="M148.976 150.869C148.976 155.902 144.861 160.016 139.828 160.016H24.2941C19.2612 160.016 15.1387 155.902 15.1387 150.869L15.2494 53.8484C15.2494 48.8162 19.3639 44.6938 24.3968 44.6938H137.645C142.678 44.6938 146.801 48.8162 146.801 53.8484L148.976 150.869Z" fill="#F9AF23"/>
</g>
<path d="M60.1144 68.3959C60.1144 73.2248 56.1972 77.1419 51.3678 77.1419C46.5323 77.1419 42.6132 73.2248 42.6132 68.3959C42.6132 63.5609 46.5323 59.6499 51.3678 59.6499C56.1972 59.6499 60.1144 63.5609 60.1144 68.3959Z" fill="#F58013"/>
<path d="M119.429 68.3959C119.429 73.2248 115.51 77.1419 110.683 77.1419C105.845 77.1419 101.926 73.2248 101.926 68.3959C101.926 63.5609 105.845 59.6499 110.683 59.6499C115.51 59.6499 119.429 63.5609 119.429 68.3959Z" fill="#F58013"/>
<mask id="mask3_160_232" style="mask-type:luminance" maskUnits="userSpaceOnUse" x="47" y="0" width="67" height="73">
<path d="M47.9481 0H113.941V72.184H47.9481V0Z" fill="white"/>
</mask>
<g mask="url(#mask3_160_232)">
<path d="M110.149 72.1639C108.066 72.1639 106.379 70.4771 106.379 68.3957V32.8704C106.379 18.8889 95.0019 7.51207 81.0251 7.51207C67.0403 7.51207 55.6635 18.8889 55.6635 32.8704V68.3957C55.6635 70.4771 53.9758 72.1639 51.8933 72.1639C49.8129 72.1639 48.1252 70.4771 48.1252 68.3957V32.8704C48.1252 14.7363 62.8794 -0.0161133 81.0251 -0.0161133C99.1627 -0.0161133 113.917 14.7363 113.917 32.8704V68.3957C113.917 70.4771 112.229 72.1639 110.149 72.1639Z" fill="#141515"/>
</g>
<mask id="mask4_160_232" style="mask-type:luminance" maskUnits="userSpaceOnUse" x="68" y="82" width="62" height="75">
<path d="M68.5347 82.7476H129.499V156.554H68.5347V82.7476Z" fill="white"/>
</mask>
<g mask="url(#mask4_160_232)">
<path d="M68.5347 82.7476H129.499V156.532H68.5347V82.7476Z" fill="#F9AF22"/>
</g>
<mask id="mask5_160_232" style="mask-type:luminance" maskUnits="userSpaceOnUse" x="59" y="82" width="81" height="51">
<path d="M59.2906 82.7476H139.261V132.989H59.2906V82.7476Z" fill="white"/>
</mask>
<g mask="url(#mask5_160_232)">
<path d="M139.224 96.4534L131.124 130.073C131.124 130.232 131.108 130.391 131.078 130.546C131.046 130.703 130.999 130.856 130.937 131.002C130.877 131.151 130.8 131.29 130.711 131.423C130.623 131.556 130.522 131.679 130.409 131.794C130.294 131.906 130.172 132.007 130.039 132.095C129.906 132.184 129.767 132.261 129.618 132.321C129.471 132.383 129.318 132.43 129.161 132.462C129.006 132.492 128.846 132.508 128.685 132.51L74.1194 132.905C73.9583 132.905 73.8012 132.889 73.6441 132.856C73.487 132.824 73.3339 132.778 73.1869 132.717C73.0379 132.655 72.8989 132.581 72.766 132.492C72.6331 132.401 72.5102 132.301 72.3954 132.188C72.2827 132.075 72.182 131.953 72.0934 131.82C72.0047 131.687 71.9282 131.546 71.8678 131.399C71.8054 131.25 71.759 131.099 71.7288 130.942C71.6966 130.785 71.6805 130.626 71.6805 130.467V96.4493C71.6785 96.3829 71.6825 96.3165 71.6885 96.25L70.9514 89.6679H62.8836C62.664 89.6579 62.4445 89.6297 62.229 89.5773C62.0135 89.527 61.8061 89.4566 61.6047 89.366C61.4013 89.2754 61.212 89.1667 61.0307 89.0399C60.8495 88.9111 60.6823 88.7682 60.5293 88.6091C60.3762 88.4501 60.2392 88.277 60.1184 88.0918C59.9996 87.9046 59.8969 87.7094 59.8143 87.5061C59.7317 87.3008 59.6693 87.0894 59.627 86.872C59.5867 86.6546 59.5646 86.4352 59.5646 86.2138C59.5646 85.9944 59.5867 85.775 59.627 85.5576C59.6693 85.3402 59.7317 85.1289 59.8143 84.9236C59.8969 84.7182 59.9996 84.523 60.1184 84.3378C60.2392 84.1526 60.3762 83.9795 60.5293 83.8205C60.6823 83.6615 60.8495 83.5186 61.0307 83.3897C61.212 83.2629 61.4013 83.1542 61.6047 83.0637C61.8061 82.9731 62.0135 82.9026 62.229 82.8503C62.4445 82.8 62.664 82.7718 62.8836 82.7617H77.1222C77.1242 82.7738 77.1242 82.7859 77.1222 82.8L77.8935 89.6719L78.3809 94.0137H136.785C136.945 94.0137 137.104 94.0298 137.261 94.062C137.418 94.0943 137.569 94.1405 137.718 94.2029C137.865 94.2633 138.006 94.3378 138.139 94.4284C138.272 94.517 138.395 94.6176 138.507 94.7303C138.62 94.8451 138.721 94.9678 138.809 95.1007C138.9 95.2335 138.975 95.3724 139.037 95.5214C139.097 95.6683 139.144 95.8213 139.176 95.9783C139.206 96.1353 139.222 96.2923 139.224 96.4534Z" fill="white"/>
</g>
<mask id="mask6_160_232" style="mask-type:luminance" maskUnits="userSpaceOnUse" x="70" y="135" width="19" height="18">
<path d="M70.6332 135.05H88.6782V152.699H70.6332V135.05Z" fill="white"/>
</mask>
<g mask="url(#mask6_160_232)">
<path d="M88.658 143.96C88.658 144.251 88.644 144.541 88.6158 144.831C88.5876 145.119 88.5453 145.407 88.4889 145.693C88.4305 145.978 88.36 146.26 88.2754 146.538C88.1908 146.816 88.0941 147.09 87.9834 147.359C87.8706 147.627 87.7457 147.891 87.6088 148.146C87.4718 148.404 87.3228 148.654 87.1617 148.895C86.9986 149.137 86.8254 149.37 86.6421 149.596C86.4568 149.821 86.2614 150.034 86.056 150.242C85.8506 150.447 85.6351 150.642 85.4095 150.827C85.184 151.011 84.9504 151.184 84.7087 151.347C84.467 151.508 84.2173 151.657 83.9615 151.794C83.7037 151.931 83.4419 152.055 83.1721 152.166C82.9042 152.279 82.6303 152.375 82.3504 152.46C82.0724 152.544 81.7905 152.615 81.5045 152.671C81.2185 152.73 80.9325 152.772 80.6425 152.8C80.3525 152.828 80.0625 152.842 79.7705 152.842C79.4805 152.842 79.1905 152.828 78.9005 152.8C78.6105 152.772 78.3225 152.73 78.0365 152.671C77.7525 152.615 77.4706 152.544 77.1906 152.46C76.9127 152.375 76.6388 152.279 76.3689 152.166C76.1011 152.055 75.8372 151.931 75.5815 151.794C75.3237 151.657 75.076 151.508 74.8323 151.347C74.5906 151.184 74.357 151.011 74.1334 150.827C73.9079 150.642 73.6924 150.447 73.487 150.242C73.2795 150.034 73.0862 149.821 72.9009 149.596C72.7156 149.37 72.5424 149.137 72.3813 148.895C72.2202 148.654 72.0692 148.404 71.9322 148.146C71.7953 147.891 71.6704 147.627 71.5596 147.359C71.4489 147.09 71.3502 146.816 71.2656 146.538C71.181 146.26 71.1105 145.978 71.0541 145.693C70.9977 145.407 70.9554 145.119 70.9252 144.831C70.897 144.541 70.8829 144.251 70.8829 143.96C70.8829 143.67 70.897 143.378 70.9252 143.09C70.9554 142.8 70.9977 142.512 71.0541 142.226C71.1105 141.941 71.181 141.659 71.2656 141.381C71.3502 141.103 71.4489 140.829 71.5596 140.56C71.6704 140.292 71.7953 140.028 71.9322 139.773C72.0692 139.515 72.2202 139.265 72.3813 139.024C72.5424 138.782 72.7156 138.549 72.9009 138.323C73.0862 138.1 73.2795 137.885 73.487 137.679C73.6924 137.472 73.9079 137.277 74.1334 137.094C74.357 136.908 74.5906 136.735 74.8323 136.574C75.076 136.411 75.3237 136.262 75.5815 136.125C75.8372 135.988 76.1011 135.864 76.3689 135.753C76.6388 135.642 76.9127 135.544 77.1906 135.459C77.4706 135.375 77.7525 135.304 78.0365 135.248C78.3225 135.191 78.6105 135.147 78.9005 135.119C79.1905 135.091 79.4805 135.077 79.7705 135.077C80.0625 135.077 80.3525 135.091 80.6425 135.119C80.9325 135.147 81.2185 135.191 81.5045 135.248C81.7905 135.304 82.0724 135.375 82.3504 135.459C82.6303 135.544 82.9042 135.642 83.1721 135.753C83.4419 135.864 83.7037 135.988 83.9615 136.125C84.2173 136.262 84.467 136.411 84.7087 136.574C84.9504 136.735 85.184 136.908 85.4095 137.094C85.6351 137.277 85.8506 137.472 86.056 137.679C86.2614 137.885 86.4568 138.1 86.6421 138.323C86.8254 138.549 86.9986 138.782 87.1617 139.024C87.3228 139.265 87.4718 139.515 87.6088 139.773C87.7457 140.028 87.8706 140.292 87.9834 140.56C88.0941 140.829 88.1908 141.103 88.2754 141.381C88.36 141.659 88.4305 141.941 88.4889 142.226C88.5453 142.512 88.5876 142.8 88.6158 143.09C88.644 143.378 88.658 143.67 88.658 143.96Z" fill="#38B6FF"/>
</g>
<mask id="mask7_160_232" style="mask-type:luminance" maskUnits="userSpaceOnUse" x="95" y="135" width="19" height="18">
<path d="M95.8962 135.05H113.941V152.699H95.8962V135.05Z" fill="white"/>
</mask>
<g mask="url(#mask7_160_232)">
<path d="M113.744 143.96C113.744 144.251 113.73 144.541 113.701 144.831C113.671 145.119 113.629 145.407 113.573 145.693C113.516 145.978 113.446 146.26 113.361 146.538C113.277 146.816 113.178 147.09 113.067 147.359C112.956 147.627 112.831 147.891 112.694 148.146C112.558 148.404 112.406 148.654 112.245 148.895C112.084 149.137 111.911 149.37 111.726 149.596C111.54 149.821 111.345 150.034 111.14 150.242C110.934 150.447 110.719 150.642 110.493 150.827C110.27 151.011 110.036 151.184 109.792 151.347C109.551 151.508 109.301 151.657 109.045 151.794C108.789 151.931 108.526 152.055 108.258 152.166C107.988 152.279 107.714 152.375 107.436 152.46C107.156 152.544 106.874 152.615 106.59 152.671C106.304 152.73 106.016 152.772 105.726 152.8C105.436 152.828 105.146 152.842 104.856 152.842C104.564 152.842 104.274 152.828 103.984 152.8C103.694 152.772 103.406 152.73 103.122 152.671C102.836 152.615 102.554 152.544 102.276 152.46C101.996 152.375 101.722 152.279 101.455 152.166C101.185 152.055 100.923 151.931 100.665 151.794C100.409 151.657 100.16 151.508 99.918 151.347C99.6763 151.184 99.4427 151.011 99.2171 150.827C98.9916 150.642 98.7761 150.447 98.5707 150.242C98.3652 150.034 98.1699 149.821 97.9846 149.596C97.8013 149.37 97.6281 149.137 97.465 148.895C97.3039 148.654 97.1548 148.404 97.0179 148.146C96.8789 147.891 96.7561 147.627 96.6433 147.359C96.5325 147.09 96.4339 146.816 96.3513 146.538C96.2667 146.26 96.1942 145.978 96.1378 145.693C96.0814 145.407 96.0391 145.119 96.0109 144.831C95.9827 144.541 95.9686 144.251 95.9686 143.96C95.9686 143.67 95.9827 143.378 96.0109 143.09C96.0391 142.8 96.0814 142.512 96.1378 142.226C96.1942 141.941 96.2667 141.659 96.3513 141.381C96.4339 141.103 96.5325 140.829 96.6433 140.56C96.7561 140.292 96.8789 140.028 97.0179 139.773C97.1548 139.515 97.3039 139.265 97.465 139.024C97.6281 138.782 97.8013 138.549 97.9846 138.323C98.1699 138.1 98.3652 137.885 98.5707 137.679C98.7761 137.472 98.9916 137.277 99.2171 137.094C99.4427 136.908 99.6763 136.735 99.918 136.574C100.16 136.411 100.409 136.262 100.665 136.125C100.923 135.988 101.185 135.864 101.455 135.753C101.722 135.642 101.996 135.544 102.276 135.459C102.554 135.375 102.836 135.304 103.122 135.248C103.406 135.191 103.694 135.147 103.984 135.119C104.274 135.091 104.564 135.077 104.856 135.077C105.146 135.077 105.436 135.091 105.726 135.119C106.016 135.147 106.304 135.191 106.59 135.248C106.874 135.304 107.156 135.375 107.436 135.459C107.714 135.544 107.988 135.642 108.258 135.753C108.526 135.864 108.789 135.988 109.045 136.125C109.301 136.262 109.551 136.411 109.792 136.574C110.036 136.735 110.27 136.908 110.493 137.094C110.719 137.277 110.934 137.472 111.14 137.679C111.345 137.885 111.54 138.1 111.726 138.323C111.911 138.549 112.084 138.782 112.245 139.024C112.406 139.265 112.558 139.515 112.694 139.773C112.831 140.028 112.956 140.292 113.067 140.56C113.178 140.829 113.277 141.103 113.361 141.381C113.446 141.659 113.516 141.941 113.573 142.226C113.629 142.512 113.671 142.8 113.701 143.09C113.73 143.378 113.744 143.67 113.744 143.96Z" fill="#38B6FF"/>
</g>
<path d="M45.4025 96.9746H65.7474C65.9025 96.9746 66.0575 96.9907 66.2106 97.0209C66.3616 97.0511 66.5107 97.0954 66.6537 97.1558C66.7987 97.2141 66.9356 97.2886 67.0645 97.3752C67.1934 97.4597 67.3142 97.5583 67.423 97.6691C67.5337 97.7798 67.6324 97.8985 67.719 98.0273C67.8036 98.1562 67.8781 98.293 67.9365 98.438C67.997 98.5809 68.0413 98.7298 68.0715 98.8808C68.1017 99.0338 68.1178 99.1888 68.1178 99.3438V99.9356C68.1178 100.093 68.1017 100.246 68.0715 100.399C68.0413 100.552 67.997 100.698 67.9365 100.843C67.8781 100.986 67.8036 101.123 67.719 101.252C67.6324 101.381 67.5337 101.502 67.423 101.61C67.3142 101.721 67.1934 101.82 67.0645 101.906C66.9356 101.993 66.7987 102.065 66.6537 102.126C66.5107 102.184 66.3616 102.228 66.2106 102.258C66.0575 102.291 65.9025 102.305 65.7474 102.305H45.4025C45.2474 102.305 45.0943 102.291 44.9413 102.258C44.7882 102.228 44.6392 102.184 44.4962 102.126C44.3532 102.065 44.2162 101.993 44.0874 101.906C43.9564 101.82 43.8376 101.721 43.7269 101.61C43.6181 101.502 43.5194 101.381 43.4328 101.252C43.3462 101.123 43.2737 100.986 43.2133 100.843C43.1549 100.698 43.1086 100.552 43.0784 100.399C43.0482 100.246 43.0341 100.093 43.0341 99.9356V99.3438C43.0341 99.1888 43.0482 99.0338 43.0784 98.8808C43.1086 98.7298 43.1549 98.5809 43.2133 98.438C43.2737 98.293 43.3462 98.1562 43.4328 98.0273C43.5194 97.8985 43.6181 97.7798 43.7269 97.6691C43.8376 97.5583 43.9564 97.4597 44.0874 97.3752C44.2162 97.2886 44.3532 97.2141 44.4962 97.1558C44.6392 97.0954 44.7882 97.0511 44.9413 97.0209C45.0943 96.9907 45.2474 96.9746 45.4025 96.9746Z" fill="white"/>
<path d="M45.4025 130.141H65.7474C65.9025 130.141 66.0575 130.155 66.2106 130.185C66.3616 130.216 66.5107 130.262 66.6537 130.32C66.7987 130.381 66.9356 130.453 67.0645 130.54C67.1934 130.626 67.3142 130.725 67.423 130.834C67.5337 130.944 67.6324 131.063 67.719 131.194C67.8036 131.323 67.8781 131.46 67.9365 131.602C67.997 131.747 68.0413 131.894 68.0715 132.047C68.1017 132.2 68.1178 132.353 68.1178 132.51V133.102C68.1178 133.257 68.1017 133.412 68.0715 133.563C68.0413 133.716 67.997 133.865 67.9365 134.008C67.8781 134.153 67.8036 134.288 67.719 134.418C67.6324 134.547 67.5337 134.666 67.423 134.777C67.3142 134.887 67.1934 134.984 67.0645 135.071C66.9356 135.157 66.7987 135.23 66.6537 135.29C66.5107 135.35 66.3616 135.395 66.2106 135.425C66.0575 135.455 65.9025 135.471 65.7474 135.471H45.4025C45.2474 135.471 45.0943 135.455 44.9413 135.425C44.7882 135.395 44.6392 135.35 44.4962 135.29C44.3532 135.23 44.2162 135.157 44.0874 135.071C43.9564 134.984 43.8376 134.887 43.7269 134.777C43.6181 134.666 43.5194 134.547 43.4328 134.418C43.3462 134.288 43.2737 134.153 43.2133 134.008C43.1549 133.865 43.1086 133.716 43.0784 133.563C43.0482 133.412 43.0341 133.257 43.0341 133.102V132.51C43.0341 132.353 43.0482 132.2 43.0784 132.047C43.1086 131.894 43.1549 131.747 43.2133 131.602C43.2737 131.46 43.3462 131.323 43.4328 131.194C43.5194 131.063 43.6181 130.944 43.7269 130.834C43.8376 130.725 43.9564 130.626 44.0874 130.54C44.2162 130.453 44.3532 130.381 44.4962 130.32C44.6392 130.262 44.7882 130.216 44.9413 130.185C45.0943 130.155 45.2474 130.141 45.4025 130.141Z" fill="white"/>
<mask id="mask8_160_232" style="mask-type:luminance" maskUnits="userSpaceOnUse" x="22" y="112" width="47" height="7">
<path d="M22.097 112.893H68.5709V118.561H22.097V112.893Z" fill="white"/>
</mask>
<g mask="url(#mask8_160_232)">
<path d="M24.7635 113.162H65.4513C65.6265 113.162 65.7997 113.18 65.9709 113.214C66.142 113.249 66.3092 113.299 66.4723 113.365C66.6335 113.432 66.7865 113.514 66.9315 113.613C67.0785 113.71 67.2135 113.82 67.3363 113.943C67.4612 114.068 67.5699 114.203 67.6686 114.348C67.7653 114.493 67.8479 114.646 67.9143 114.809C67.9808 114.97 68.0311 115.137 68.0654 115.308C68.0996 115.479 68.1177 115.652 68.1177 115.827C68.1177 116.002 68.0996 116.175 68.0654 116.349C68.0311 116.52 67.9808 116.687 67.9143 116.848C67.8479 117.009 67.7653 117.164 67.6686 117.309C67.5699 117.454 67.4612 117.588 67.3363 117.713C67.2135 117.836 67.0785 117.947 66.9315 118.043C66.7865 118.142 66.6335 118.222 66.4723 118.291C66.3092 118.357 66.142 118.408 65.9709 118.442C65.7997 118.476 65.6265 118.492 65.4513 118.492H24.7635C24.5882 118.492 24.415 118.476 24.2418 118.442C24.0707 118.408 23.9035 118.357 23.7424 118.291C23.5813 118.222 23.4262 118.142 23.2812 118.043C23.1362 117.947 23.0012 117.836 22.8764 117.713C22.7535 117.588 22.6428 117.454 22.5461 117.309C22.4474 117.164 22.3669 117.009 22.2984 116.848C22.2319 116.687 22.1816 116.52 22.1473 116.349C22.1131 116.175 22.097 116.002 22.097 115.827C22.097 115.652 22.1131 115.479 22.1473 115.308C22.1816 115.137 22.2319 114.97 22.2984 114.809C22.3669 114.646 22.4474 114.493 22.5461 114.348C22.6428 114.203 22.7535 114.068 22.8764 113.943C23.0012 113.82 23.1362 113.71 23.2812 113.613C23.4262 113.514 23.5813 113.432 23.7424 113.365C23.9035 113.299 24.0707 113.249 24.2418 113.214C24.415 113.18 24.5882 113.162 24.7635 113.162Z" fill="white"/>
</g>
</svg>
