<svg width="301" height="299" viewBox="0 0 301 299" fill="none" xmlns="http://www.w3.org/2000/svg">
<mask id="mask0_203_312" style="mask-type:luminance" maskUnits="userSpaceOnUse" x="150" y="289" width="151" height="10">
<path d="M150.908 289.651H300.482V298.693H150.908V289.651Z" fill="white"/>
</mask>
<g mask="url(#mask0_203_312)">
<path d="M150.908 298.698H300.482V290.054H150.908V298.698Z" fill="#C8D6DC"/>
</g>
<mask id="mask1_203_312" style="mask-type:luminance" maskUnits="userSpaceOnUse" x="150" y="296" width="151" height="3">
<path d="M150.908 296.235H300.482V298.693H150.908V296.235Z" fill="white"/>
</mask>
<g mask="url(#mask1_203_312)">
<path d="M300.482 298.697H150.908V296.316H300.482V298.697Z" fill="#92A4AD"/>
</g>
<path d="M191.58 165.777C191.036 167.858 190.895 170.169 192.209 171.989C193.425 173.68 195.643 174.622 197.548 175.778C199.453 176.934 201.26 178.685 200.926 180.646C200.476 183.287 196.743 184.323 193.836 185.394C190.655 186.567 187.718 188.519 186.395 191.22C185.068 193.926 185.749 197.432 188.544 199.166C192.226 201.448 198.635 200.523 200.549 204.021C201.641 206.025 200.45 208.354 199.166 210.272C197.218 213.183 194.992 216 193.647 219.147C192.303 222.294 191.931 225.911 193.699 228.904C195.805 232.479 200.532 234.461 205.19 235.18C209.848 235.895 214.634 235.595 219.352 235.925C216.839 234.328 213.821 233.421 211.098 232.098C208.371 230.771 205.785 228.823 205.168 226.224C204.179 222.071 208.388 218.479 212.044 215.576C215.696 212.669 219.438 208.465 217.404 204.595C216.629 203.122 215.135 202.03 213.714 200.952C211.911 199.586 210.126 198.13 209.056 196.294C207.99 194.457 207.758 192.158 209.043 190.424C210.627 188.288 214.005 187.543 215.794 185.526C218.569 182.397 216.308 177.829 213.076 175.029C211.654 173.791 209.993 172.618 209.385 170.974C207.861 166.817 213.761 163.414 214.951 159.175C215.807 156.11 213.752 152.646 210.319 151.392C201.294 148.087 193.121 159.916 191.58 165.777Z" fill="#141A1B"/>
<mask id="mask2_203_312" style="mask-type:luminance" maskUnits="userSpaceOnUse" x="190" y="102" width="68" height="58">
<path d="M190.869 102.235H257.725V159.197H190.869V102.235Z" fill="white"/>
</mask>
<g mask="url(#mask2_203_312)">
<path d="M257.074 139.452C257.074 160.006 240.934 158.906 222.739 158.906C204.548 158.906 191.19 160.006 191.19 139.452C191.19 118.897 205.935 102.23 224.13 102.23C242.325 102.23 257.074 118.897 257.074 139.452Z" fill="#141A1B"/>
</g>
<path d="M234.572 195.459H218.423V171.394H234.572V195.459Z" fill="#F3AC71"/>
<path d="M234.572 195.459H218.423V171.394H234.572V195.459Z" fill="#F3AC71"/>
<path d="M234.777 172.559C234.375 172.204 233.951 171.87 233.51 171.566H219.656C219.159 172.217 218.736 173 218.423 173.831V179.499C219.224 180.963 220.684 182.016 222.126 182.851C224.49 184.213 227.071 185.274 229.764 185.467C231.459 185.591 233.211 185.339 234.777 184.671V172.559Z" fill="#D6562B"/>
<path d="M248.298 128.599C248.417 141.721 237.873 152.45 224.751 152.565C211.629 152.685 200.896 142.145 200.776 129.027C200.66 115.909 211.201 105.18 224.323 105.061C237.445 104.945 248.178 115.481 248.298 128.599Z" fill="#F3AC71"/>
<path d="M248.533 154.847C248.653 167.965 238.113 178.698 224.986 178.813C211.864 178.929 201.131 168.393 201.011 155.275C200.896 142.157 211.436 131.429 224.558 131.309C237.684 131.189 248.417 141.729 248.533 154.847Z" fill="#F3AC71"/>
<path d="M248.55 156.821L201.028 157.253L200.767 128.213L248.293 127.785L248.55 156.821Z" fill="#F3AC71"/>
<path d="M255.653 145.993C252.425 140.389 247.574 147.603 247.574 147.603L246.106 160.832C254.467 158.897 258.881 151.597 255.653 145.993Z" fill="#F3AC71"/>
<path d="M248.036 150.613C248.036 150.613 250.451 146.109 252.776 147.462C255.101 148.811 254.66 155.896 247.591 157.403L248.036 150.613Z" fill="#E37748"/>
<path d="M194.281 145.968C197.411 140.303 202.385 147.432 202.385 147.432L204.094 160.631C195.698 158.85 191.151 151.627 194.281 145.968Z" fill="#F3AC71"/>
<path d="M201.979 150.446C201.979 150.446 199.483 145.989 197.184 147.385C194.885 148.776 195.454 155.849 202.548 157.232L201.979 150.446Z" fill="#E37748"/>
<path d="M232.671 148.982C232.688 150.921 233.634 152.488 234.782 152.475C235.929 152.467 236.845 150.887 236.828 148.943C236.811 147.004 235.869 145.437 234.717 145.445C233.57 145.458 232.654 147.038 232.671 148.982Z" fill="#100F0D"/>
<path d="M235.801 146.692C236.023 146.88 236.306 146.871 236.558 146.752C236.824 146.64 237.025 146.37 237.171 146.084C237.312 145.784 237.385 145.459 237.402 145.129C237.415 144.804 237.389 144.482 237.291 144.17C237.025 144.735 236.884 145.249 236.674 145.664C236.477 146.084 236.259 146.413 235.801 146.692Z" fill="#100F0D"/>
<path d="M215.032 149.119C215.049 151.05 214.133 152.625 212.986 152.634C211.834 152.647 210.888 151.088 210.871 149.157C210.854 147.222 211.77 145.647 212.922 145.638C214.069 145.625 215.015 147.184 215.032 149.119Z" fill="#100F0D"/>
<path d="M211.86 146.897C211.642 147.085 211.359 147.085 211.102 146.969C210.837 146.862 210.627 146.597 210.481 146.314C210.336 146.019 210.254 145.694 210.233 145.368C210.212 145.043 210.233 144.722 210.323 144.409C210.605 144.97 210.751 145.479 210.969 145.886C211.175 146.301 211.398 146.623 211.86 146.897Z" fill="#100F0D"/>
<path d="M225.376 151.696C225.359 152.737 225.243 153.764 225.098 154.779C224.952 155.793 224.772 156.8 224.567 157.797L224.408 158.546L224.241 159.291L224.198 159.475L224.173 159.638C224.156 159.749 224.126 159.856 224.13 159.968C224.126 160.079 224.109 160.19 224.121 160.302L224.126 160.469L224.134 160.55L224.147 160.636C224.271 161.535 224.781 162.417 225.479 163.183C225.239 163.084 225.008 162.943 224.794 162.789C224.682 162.716 224.584 162.626 224.477 162.541C224.383 162.447 224.28 162.357 224.19 162.254C223.822 161.856 223.522 161.363 223.359 160.811C223.278 160.537 223.231 160.246 223.222 159.955C223.209 159.809 223.227 159.664 223.235 159.518L223.257 159.304L223.287 159.111C223.321 158.855 223.372 158.602 223.415 158.349L223.561 157.592C223.77 156.585 224.019 155.588 224.314 154.608C224.614 153.623 224.943 152.647 225.376 151.696Z" fill="#D6562B"/>
<path d="M235.321 176.673C234.075 177.448 232.705 178.034 231.288 178.458C229.871 178.882 228.394 179.139 226.917 179.233C225.436 179.323 223.942 179.25 222.482 179.006C221.022 178.758 219.592 178.351 218.256 177.735C219.703 177.991 221.133 178.201 222.567 178.304C224.002 178.415 225.431 178.424 226.861 178.334C228.287 178.248 229.708 178.06 231.117 177.777C232.53 177.495 233.921 177.11 235.321 176.673Z" fill="#D6562B"/>
<path d="M252.622 136.613C244.316 136.301 236.1 133.86 228.972 129.588C224.798 127.087 220.769 123.62 219.635 118.889C215.049 128.128 206.14 135.106 196.071 137.341C194.585 128.851 197.869 119.561 203.785 113.289C206.547 110.352 209.869 107.899 213.602 106.375C222.632 102.689 233.54 104.992 241.032 111.238C248.525 117.485 252.129 126.873 252.622 136.613Z" fill="#141A1B"/>
<path d="M208.092 139.439C208.747 137.791 210.546 136.639 212.429 136.588C213.363 136.592 214.292 136.789 215.084 137.217C215.495 137.406 215.841 137.701 216.197 137.949C216.518 138.253 216.826 138.57 217.087 138.917C216.642 138.823 216.257 138.677 215.863 138.553C215.46 138.459 215.084 138.318 214.703 138.245C213.941 138.061 213.2 137.975 212.468 137.988C211.736 137.988 211.016 138.155 210.293 138.39C209.565 138.639 208.85 138.994 208.092 139.439Z" fill="#141A1B"/>
<path d="M231.228 138.099C231.883 136.451 233.681 135.299 235.565 135.248C236.499 135.256 237.428 135.449 238.224 135.881C238.631 136.065 238.977 136.361 239.333 136.609C239.654 136.917 239.962 137.23 240.223 137.577C239.782 137.482 239.393 137.337 238.999 137.213C238.596 137.123 238.224 136.977 237.839 136.904C237.076 136.725 236.336 136.639 235.604 136.648C234.872 136.648 234.157 136.814 233.429 137.05C232.701 137.298 231.986 137.654 231.228 138.099Z" fill="#141A1B"/>
<path d="M216.201 164.42L233.587 164.343C233.587 164.343 234.204 173.316 225.217 173.372C216.227 173.432 216.201 164.42 216.201 164.42Z" fill="white"/>
<path d="M160.493 260.444C158.725 264.46 161.328 269.495 166.312 271.687C171.295 273.879 176.767 272.397 178.535 268.377C180.303 264.357 177.7 259.322 172.716 257.135C167.737 254.943 162.266 256.424 160.493 260.444Z" fill="#1C2034"/>
<path d="M186.84 200.494C185.072 204.514 187.679 209.549 192.658 211.741C197.642 213.933 203.113 212.451 204.881 208.431C206.654 204.411 204.047 199.377 199.067 197.189C194.084 194.993 188.613 196.478 186.84 200.494Z" fill="#1C2034"/>
<path d="M186.845 200.494L204.881 208.431L178.333 268.741L160.292 260.804L186.845 200.494Z" fill="#1C2034"/>
<path d="M217.563 278.502L170.494 272.179L173.153 253.808C173.153 253.808 211.586 260.179 219.879 258.047L217.563 278.502Z" fill="#1C2034"/>
<path d="M290.896 260.444C292.664 264.46 290.061 269.495 285.078 271.687C280.094 273.879 274.623 272.397 272.855 268.377C271.087 264.357 273.69 259.322 278.673 257.135C283.652 254.943 289.128 256.424 290.896 260.444Z" fill="#1C2034"/>
<path d="M264.545 200.494C266.317 204.514 263.71 209.549 258.731 211.741C253.748 213.933 248.276 212.451 246.508 208.431C244.736 204.411 247.343 199.377 252.322 197.189C257.305 194.993 262.777 196.478 264.545 200.494Z" fill="#1C2034"/>
<path d="M264.545 200.494L246.504 208.431L273.056 268.741L291.097 260.804L264.545 200.494Z" fill="#1C2034"/>
<path d="M233.827 278.502L280.895 272.179L278.236 253.808C278.236 253.808 239.804 260.179 231.511 258.047L233.827 278.502Z" fill="#1C2034"/>
<path d="M255.623 246.231C256.727 244.296 258.812 243.08 259.878 241.033C263.543 234.008 260.354 226.19 255.97 220.303L260.14 196.012L243.306 189.877L234.598 197.767L223.175 197.583L212.297 189.607L207.955 190.206L207.836 189.877L190.997 196.012L195.167 220.303C190.783 226.19 187.594 234.008 191.259 241.033C192.325 243.08 194.414 244.296 195.518 246.231C198.948 252.237 197.847 260.17 196.336 266.584C195.844 268.66 195.728 268.96 197.561 270.257C199.145 271.37 200.896 272.235 202.698 272.92C206.264 274.277 210.07 274.924 213.851 275.352C227.773 276.936 242.364 275.93 254.916 269.701C253.641 267.307 254.022 264.884 253.701 262.294C253.405 259.888 253.345 257.465 253.564 255.046C253.812 252.289 254.223 248.68 255.623 246.231Z" fill="#232847"/>
<path d="M218.158 187.625L207.039 191.559C207.039 191.559 210.845 207.109 226.485 207.109C242.124 207.109 248.041 192.869 248.041 192.869L234.473 187.261L218.158 187.625Z" fill="#F3AC71"/>
<path d="M205.181 194.067L209.257 264.824H241.859L245.707 195.6L231.605 208.247L221.133 207.108L205.181 194.067Z" fill="#C8C8CD"/>
<path d="M241.336 187.646L225.568 207.108L232.423 221.403L251.003 191.833L241.336 187.646Z" fill="white"/>
<path d="M210.742 187.646L227.264 207.065L219.656 221.403L201.075 191.833L210.742 187.646Z" fill="white"/>
<path d="M271.292 286.252H181.206L171.321 234.577C170.353 229.534 174.223 224.854 179.361 224.854H274.657C279.893 224.854 283.781 229.697 282.655 234.808L271.292 286.252Z" fill="#3A4752"/>
<path d="M271.502 292.802H180.718C180.012 292.802 179.434 292.224 179.434 291.517V287.536C179.434 286.829 180.012 286.251 180.718 286.251H271.502C272.208 286.251 272.786 286.829 272.786 287.536V291.517C272.786 292.224 272.208 292.802 271.502 292.802Z" fill="#343C3F"/>
<path d="M227.962 269.893C222.499 269.893 218.068 265.466 218.068 260.003C218.068 254.545 222.499 250.114 227.962 250.114C233.425 250.114 237.856 254.545 237.856 260.003C237.856 265.466 233.425 269.893 227.962 269.893Z" fill="#737F87"/>
<path d="M209.42 170.821C207.707 170.697 206.106 170.269 204.62 169.536C201.388 167.94 199.359 165.174 198.224 163.132C197 160.931 196.537 159.12 196.52 159.043C196.452 158.778 196.614 158.504 196.88 158.439C197.15 158.371 197.419 158.534 197.488 158.803C197.513 158.889 199.329 165.812 205.074 168.642C208.739 170.453 213.234 170.239 218.423 168.004C218.676 167.897 218.971 168.012 219.078 168.269C219.189 168.522 219.07 168.817 218.817 168.924C215.4 170.393 212.258 171.026 209.42 170.821Z" fill="#1B1918"/>
<path d="M220.881 169.549C220.761 171.202 219.326 172.443 217.674 172.323C216.021 172.204 214.78 170.769 214.9 169.121C215.019 167.469 216.454 166.227 218.106 166.347C219.759 166.467 221 167.901 220.881 169.549Z" fill="#1B1918"/>
<path d="M192.487 149.157C191.747 138.424 193.746 134.772 193.746 134.772L191.301 132.645C186.142 133.98 189.871 155.202 189.871 155.202C189.533 157.981 192.77 156.966 192.77 156.966L192.487 149.157Z" fill="#939897"/>
<path d="M195.951 142.791C195.951 142.791 195.595 141.327 194.778 142.706C193.96 144.084 192.393 146.584 192.393 146.584L192.77 156.966C192.77 156.966 195.899 162.626 196.79 160.28C197.676 157.934 195.951 142.791 195.951 142.791Z" fill="#1B1918"/>
<path d="M197.154 142.705C197.154 142.705 196.435 141.558 195.672 142.598C194.915 143.639 195.497 158.751 196.494 160.567C196.494 160.567 198.027 161.603 198.177 159.526C198.327 157.454 198.665 152.762 198.665 152.762L197.154 142.705Z" fill="#939494"/>
<path d="M199.431 142.316C198.952 142.187 197.685 141.939 197.154 142.705C197.09 142.795 197.051 142.902 197.042 143.014C196.923 144.379 196.066 155.061 198.036 160.507C198.036 160.507 199.958 161.329 201.011 160.04C201.666 159.231 201.769 157.266 201.713 155.463C201.662 153.618 201.692 151.773 201.778 149.932C201.906 147.068 201.743 142.932 199.787 142.406C199.671 142.376 199.551 142.346 199.431 142.316Z" fill="#1B1918"/>
<path d="M256.398 152.095C258.671 141.58 257.224 137.675 257.224 137.675L259.943 135.924C264.857 137.988 258.115 158.452 258.115 158.452C258.05 161.248 254.993 159.779 254.993 159.779L256.398 152.095Z" fill="#939897"/>
<path d="M253.885 145.296C253.885 145.296 254.45 143.9 255.058 145.382C255.67 146.859 256.86 149.56 256.86 149.56L254.994 159.779C254.994 159.779 251.08 164.934 250.541 162.485C250.002 160.036 253.885 145.296 253.885 145.296Z" fill="#1B1918"/>
<path d="M252.707 145.039C252.707 145.039 253.585 144.003 254.189 145.142C254.788 146.285 252.039 161.158 250.789 162.81C250.789 162.81 249.124 163.611 249.274 161.539C249.424 159.467 249.766 154.77 249.766 154.77L252.707 145.039Z" fill="#939494"/>
<path d="M250.507 144.324C250.999 144.268 252.292 144.2 252.707 145.039C252.759 145.137 252.78 145.249 252.772 145.36C252.694 146.726 252.009 157.42 249.274 162.528C249.274 162.528 247.249 163.067 246.397 161.637C245.862 160.742 246.05 158.782 246.358 157.009C246.679 155.194 246.91 153.362 247.095 151.525C247.377 148.669 248.131 144.602 250.143 144.362C250.267 144.349 250.387 144.341 250.507 144.324Z" fill="#1B1918"/>
<path d="M192.958 136.712L190.167 135.612L195.403 122.348C197.025 118.226 199.688 114.561 203.1 111.748C206.521 108.927 210.631 107.022 214.981 106.238C220.397 105.262 226.245 105.339 231.9 106.469C242.056 108.494 250.674 115.383 254.959 124.891L261.403 139.182L258.663 140.415L252.224 126.124C248.336 117.494 240.519 111.247 231.314 109.411C226.099 108.374 220.491 108.293 215.512 109.192C207.75 110.588 201.114 116.055 198.194 123.449L192.958 136.712Z" fill="#939897"/>
<path d="M196.19 126.415C195.895 126.394 195.595 126.326 195.304 126.21C193.763 125.602 193.005 123.86 193.613 122.318C195.334 117.964 198.151 114.09 201.756 111.114C205.378 108.126 209.724 106.11 214.326 105.283C219.926 104.273 225.971 104.354 231.806 105.519C242.432 107.638 251.453 114.848 255.94 124.797C256.62 126.308 255.948 128.085 254.437 128.766C252.926 129.447 251.149 128.774 250.464 127.263C246.773 119.073 239.358 113.148 230.629 111.405C225.598 110.399 220.187 110.322 215.392 111.191C208.135 112.497 201.932 117.605 199.2 124.523C198.708 125.773 197.466 126.505 196.19 126.415Z" fill="#1B1918"/>
<mask id="mask3_203_312" style="mask-type:luminance" maskUnits="userSpaceOnUse" x="0" y="0" width="198" height="108">
<path d="M197.762 0.306641H0.481779V107.167H197.762V0.306641Z" fill="white"/>
</mask>
<g mask="url(#mask3_203_312)">
<path d="M15.8814 0.384277H182.362C190.852 0.384277 197.762 7.28137 197.762 15.7582V66.4097C197.762 74.8909 190.852 81.788 182.362 81.788H173.123L179.412 105.686C179.545 106.17 179.327 106.649 178.929 106.915C178.753 107.005 178.577 107.09 178.359 107.09C178.094 107.09 177.833 107.005 177.61 106.782L151.212 81.788H15.8814C7.38743 81.788 0.481779 74.8909 0.481779 66.4097V15.7582C0.481779 7.28137 7.38743 0.384277 15.8814 0.384277ZM2.68234 66.4525C2.68234 73.705 8.62043 79.6345 15.8814 79.6345H151.653C151.918 79.6345 152.226 79.7201 152.402 79.9427L176.334 102.565L170.657 80.9959C170.572 80.6449 170.657 80.3366 170.837 80.0284C171.055 79.7672 171.364 79.5917 171.715 79.5917H182.362C189.623 79.5917 195.561 73.6579 195.561 66.4097V15.7582C195.561 8.51009 189.623 2.58056 182.362 2.58056H15.8343C8.57762 2.58056 2.63525 8.51009 2.63525 15.7582V66.4525H2.68234Z" fill="black"/>
</g>
<path d="M2.68237 15.7578V66.4092C2.68237 73.6574 8.62046 79.5912 15.8815 79.5912H151.653C151.918 79.5912 152.226 79.6768 152.402 79.8952L176.334 102.522L170.657 80.9954C170.572 80.6444 170.657 80.3361 170.837 80.0279C171.055 79.7667 171.364 79.5912 171.715 79.5912H182.362C189.623 79.5912 195.561 73.6574 195.561 66.4092V15.7578C195.561 8.50961 189.623 2.58008 182.362 2.58008H15.8344C8.57765 2.58008 2.68237 8.50961 2.68237 15.7578Z" fill="white"/>
<path d="M54.5126 27.3387V27.7668C54.5126 28.4647 54.4013 29.0255 54.1872 29.4451C53.9817 29.8689 53.5964 30.3184 53.0399 30.7979C52.3549 31.4059 51.9182 31.8169 51.7384 32.0309C51.5671 32.2493 51.4472 32.4676 51.3787 32.6817C51.3102 32.9 51.276 33.174 51.276 33.5037C51.276 34.0731 51.4644 34.5183 51.8411 34.8394C52.2179 35.1562 52.753 35.3189 53.4509 35.3189C53.9047 35.3189 54.3456 35.259 54.7695 35.1477C55.2019 35.0449 55.6985 34.8566 56.2594 34.5826L56.756 35.7471C55.6343 36.2951 54.5126 36.5691 53.3824 36.5691C52.2949 36.5691 51.4472 36.2993 50.8307 35.7642C50.2142 35.2376 49.906 34.4884 49.906 33.5208C49.906 33.1098 49.9488 32.7587 50.043 32.4591C50.1457 32.1637 50.287 31.8897 50.4711 31.6371C50.6509 31.3759 50.8693 31.1319 51.1219 30.9007C51.383 30.6609 51.6699 30.4126 51.9781 30.1472C52.5475 29.6463 52.9243 29.231 53.1084 28.8971C53.301 28.5674 53.3995 28.135 53.3995 27.5956V27.3387H54.5126ZM54.9407 24.7699C54.9407 25.5491 54.5897 25.9344 53.8961 25.9344C53.5622 25.9344 53.3053 25.8402 53.1255 25.6433C52.9542 25.4378 52.8686 25.1467 52.8686 24.7699C52.8686 24.406 52.9585 24.1277 53.1426 23.9308C53.3353 23.7253 53.5879 23.6226 53.8961 23.6226C54.1915 23.6226 54.4355 23.7167 54.6325 23.8966C54.838 24.0807 54.9407 24.3718 54.9407 24.7699Z" fill="black"/>
<path d="M65.6848 33.1951H58.7149V20.6768H65.6848V21.9611H60.1706V26.0026H65.3594V27.287H60.1706V31.8936H65.6848V33.1951Z" fill="black"/>
<path d="M78.2436 33.1951H76.5825L69.7325 22.6804H69.664C69.7539 23.9134 69.801 25.0436 69.801 26.0711V33.1951H68.4652V20.6768H70.1092L76.925 31.1401H76.9935C76.9806 30.9817 76.9507 30.4851 76.9079 29.6503C76.8736 28.8197 76.8608 28.2203 76.8736 27.8521V20.6768H78.2436V33.1951Z" fill="black"/>
<path d="M97.0939 26.9102C97.0939 28.5199 96.7685 29.8557 96.1178 30.9174C95.4756 31.9792 94.568 32.6984 93.3949 33.0752L96.3747 36.1748H94.2683L91.8194 33.3492L91.357 33.3663C89.5075 33.3663 88.0776 32.8012 87.0758 31.6709C86.0825 30.5407 85.5859 28.9481 85.5859 26.8931C85.5859 24.8638 86.0868 23.2883 87.0929 22.1666C88.0947 21.0363 89.5247 20.4712 91.3742 20.4712C93.1637 20.4712 94.5637 21.0449 95.5698 22.1837C96.5844 23.3268 97.0939 24.9023 97.0939 26.9102ZM87.1272 26.9102C87.1272 28.6141 87.4868 29.9028 88.206 30.7804C88.9253 31.6495 89.9742 32.0819 91.357 32.0819C92.7356 32.0819 93.7802 31.6495 94.4909 30.7804C95.1973 29.9028 95.5527 28.6141 95.5527 26.9102C95.5527 25.2319 95.1973 23.9604 94.4909 23.0913C93.7931 22.2137 92.7527 21.7727 91.3742 21.7727C89.9785 21.7727 88.9253 22.2137 88.206 23.0913C87.4868 23.9733 87.1272 25.2448 87.1272 26.9102Z" fill="black"/>
<path d="M109.344 20.6768V28.7769C109.344 30.2068 108.907 31.3285 108.042 32.1505C107.186 32.9639 106.004 33.3664 104.497 33.3664C102.99 33.3664 101.817 32.9554 100.987 32.1334C100.165 31.3114 99.7535 30.1811 99.7535 28.7426V20.6768H101.209V28.8454C101.209 29.8857 101.492 30.6863 102.065 31.2429C102.635 31.8037 103.474 32.082 104.583 32.082C105.645 32.082 106.458 31.8037 107.032 31.2429C107.601 30.6863 107.888 29.8814 107.888 28.8283V20.6768H109.344Z" fill="black"/>
<path d="M119.624 33.1951H112.654V20.6768H119.624V21.9611H114.11V26.0026H119.299V27.287H114.11V31.8936H119.624V33.1951Z" fill="black"/>
<path d="M126.959 33.1951V20.6768H128.414V31.8765H133.928V33.1951H126.959Z" fill="black"/>
<path d="M143.028 33.1951H136.058V20.6768H143.028V21.9611H137.514V26.0026H142.703V27.287H137.514V31.8936H143.028V33.1951Z" fill="black"/>
<path d="M38.7234 48.1623C38.7234 49.4295 38.2867 50.4056 37.4219 51.0906C36.5656 51.7671 35.3326 52.101 33.7229 52.101H32.2501V57.033H30.7945V44.5146H34.0311C37.1564 44.5146 38.7234 45.7305 38.7234 48.1623ZM32.2501 50.8509H33.5516C34.8403 50.8509 35.7693 50.6454 36.343 50.2344C36.9252 49.8148 37.2164 49.147 37.2164 48.2308C37.2164 47.4002 36.9424 46.7837 36.3944 46.3813C35.8549 45.9703 35.0158 45.7648 33.877 45.7648H32.2501V50.8509Z" fill="black"/>
<path d="M50.8025 44.5146V52.6148C50.8025 54.0447 50.3658 55.1664 49.501 55.9884C48.6447 56.8018 47.4631 57.2043 45.9561 57.2043C44.4491 57.2043 43.276 56.7933 42.4455 55.9713C41.6235 55.1493 41.2125 54.019 41.2125 52.5805V44.5146H42.6681V52.6833C42.6681 53.7236 42.9507 54.5242 43.5243 55.0808C44.0937 55.6416 44.9329 55.9199 46.0417 55.9199C47.1035 55.9199 47.9169 55.6416 48.4906 55.0808C49.06 54.5242 49.3468 53.7193 49.3468 52.6661V44.5146H50.8025Z" fill="black"/>
<path d="M61.0829 57.033H54.1131V44.5146H61.0829V45.799H55.5687V49.8405H60.7576V51.1249H55.5687V55.7315H61.0829V57.033Z" fill="black"/>
<path d="M73.8472 50.6454C73.8472 52.7132 73.2864 54.293 72.169 55.389C71.0473 56.485 69.4333 57.033 67.3226 57.033H63.8634V44.5146H67.6994C69.6388 44.5146 71.1458 45.0584 72.2204 46.1415C73.3035 47.2161 73.8472 48.7188 73.8472 50.6454ZM72.306 50.6968C72.306 49.0656 71.895 47.8369 71.073 47.0149C70.2596 46.1843 69.0437 45.7648 67.4254 45.7648H65.319V55.7658H67.0829C68.8168 55.7658 70.1183 55.3462 70.9874 54.4985C71.865 53.6423 72.306 52.375 72.306 50.6968Z" fill="black"/>
<path d="M87.5013 50.7486C87.5013 52.7608 86.9918 54.3405 85.9772 55.4922C84.9711 56.6353 83.5668 57.2047 81.7644 57.2047C79.9149 57.2047 78.485 56.6396 77.4832 55.5093C76.4899 54.3791 75.9933 52.7864 75.9933 50.7314C75.9933 48.7021 76.4942 47.1266 77.5003 46.0049C78.5021 44.8747 79.932 44.3096 81.7815 44.3096C83.5711 44.3096 84.9711 44.8833 85.9772 46.0221C86.9918 47.1652 87.5013 48.7407 87.5013 50.7486ZM77.5345 50.7486C77.5345 52.4525 77.8942 53.7412 78.6134 54.6188C79.3327 55.4879 80.3816 55.9203 81.7644 55.9203C83.143 55.9203 84.1876 55.4879 84.8983 54.6188C85.6047 53.7412 85.96 52.4525 85.96 50.7486C85.96 49.0703 85.6047 47.7988 84.8983 46.9297C84.2004 46.052 83.1601 45.6111 81.7815 45.6111C80.3858 45.6111 79.3327 46.052 78.6134 46.9297C77.8942 47.8116 77.5345 49.0832 77.5345 50.7486Z" fill="black"/>
<path d="M102.712 57.0336L101.154 53.0435H96.1364L94.5952 57.0336H93.1224L98.0716 44.4639H99.3046L104.219 57.0336H102.712ZM100.709 51.742L99.2532 47.8546C99.0562 47.3666 98.8636 46.7672 98.6709 46.0565C98.5425 46.6045 98.3627 47.2039 98.1229 47.8546L96.6502 51.742H100.709Z" fill="black"/>
<path d="M109.132 50.7653L112.471 44.5146H114.046L109.868 52.1695V57.033H108.395V52.238L104.217 44.5146H105.809L109.132 50.7653Z" fill="black"/>
<path d="M125.218 44.5146V52.6148C125.218 54.0447 124.781 55.1664 123.917 55.9884C123.06 56.8018 121.879 57.2043 120.372 57.2043C118.865 57.2043 117.692 56.7933 116.861 55.9713C116.039 55.1493 115.628 54.019 115.628 52.5805V44.5146H117.084V52.6833C117.084 53.7236 117.366 54.5242 117.94 55.0808C118.509 55.6416 119.348 55.9199 120.457 55.9199C121.519 55.9199 122.333 55.6416 122.906 55.0808C123.476 54.5242 123.762 53.7193 123.762 52.6661V44.5146H125.218Z" fill="black"/>
<path d="M138.513 50.6454C138.513 52.7132 137.952 54.293 136.834 55.389C135.713 56.485 134.099 57.033 131.988 57.033H128.529V44.5146H132.365C134.304 44.5146 135.811 45.0584 136.886 46.1415C137.969 47.2161 138.513 48.7188 138.513 50.6454ZM136.971 50.6968C136.971 49.0656 136.56 47.8369 135.738 47.0149C134.925 46.1843 133.709 45.7648 132.091 45.7648H129.984V55.7658H131.748C133.482 55.7658 134.784 55.3462 135.653 54.4985C136.53 53.6423 136.971 52.375 136.971 50.6968Z" fill="black"/>
<path d="M149.17 57.0336L147.611 53.0435H142.594L141.053 57.0336H139.58L144.529 44.4639H145.762L150.677 57.0336H149.17ZM147.166 51.742L145.711 47.8546C145.514 47.3666 145.321 46.7672 145.128 46.0565C145 46.6045 144.82 47.2039 144.58 47.8546L143.108 51.742H147.166Z" fill="black"/>
<path d="M153.859 51.827V57.033H152.404V44.5146H155.829C157.37 44.5146 158.504 44.8143 159.237 45.4051C159.964 45.9874 160.333 46.8693 160.333 48.0424C160.333 49.6992 159.493 50.8166 157.815 51.3989L161.223 57.033H159.493L156.462 51.827H153.859ZM153.859 50.5769H155.846C156.873 50.5769 157.627 50.3714 158.106 49.9604C158.586 49.5494 158.826 48.9415 158.826 48.128C158.826 47.2975 158.577 46.6981 158.089 46.3299C157.61 45.966 156.826 45.7819 155.743 45.7819H153.859V50.5769Z" fill="black"/>
<path d="M163.995 53.5742V53.1118C163.995 52.4525 164.097 51.9045 164.303 51.4678C164.508 51.0354 164.889 50.5773 165.45 50.0978C166.225 49.447 166.709 48.959 166.906 48.625C167.111 48.2954 167.214 47.8972 167.214 47.4263C167.214 46.844 167.026 46.3945 166.649 46.0734C166.281 45.7566 165.746 45.5939 165.039 45.5939C164.594 45.5939 164.153 45.6538 163.721 45.7652C163.297 45.8679 162.804 46.0563 162.248 46.3303L161.751 45.1829C162.822 44.6135 163.948 44.3267 165.125 44.3267C166.221 44.3267 167.069 44.5964 167.677 45.1315C168.28 45.671 168.584 46.4288 168.584 47.4092C168.584 47.8202 168.524 48.1883 168.413 48.5052C168.297 48.8263 168.13 49.1302 167.916 49.4128C167.698 49.6868 167.231 50.1406 166.512 50.7657C165.938 51.258 165.557 51.669 165.365 51.9987C165.181 52.3198 165.091 52.7522 165.091 53.3002V53.5742H163.995ZM163.567 56.1258C163.567 55.3509 163.909 54.9613 164.594 54.9613C164.924 54.9613 165.181 55.064 165.365 55.2695C165.544 55.4665 165.639 55.749 165.639 56.1258C165.639 56.494 165.544 56.7765 165.365 56.982C165.181 57.1875 164.924 57.2903 164.594 57.2903C164.294 57.2903 164.05 57.1961 163.858 57.0163C163.661 56.8365 163.567 56.5368 163.567 56.1258Z" fill="black"/>
</svg>
