<svg width="312" height="45" viewBox="0 0 312 45" fill="none" xmlns="http://www.w3.org/2000/svg">
<rect width="312" height="45" fill="#1E1E1E"/>
<rect width="1293" height="1216" transform="translate(-959 -19)" fill="white"/>
<path d="M11.3471 9.31818H16.1412L24.4764 29.6705H24.7832L33.1184 9.31818H37.9125V35.5H34.1539V16.554H33.911L26.1895 35.4616H23.0701L15.3485 16.5412H15.1056V35.5H11.3471V9.31818ZM49.0634 35.9347C47.8191 35.9347 46.6941 35.7045 45.6884 35.2443C44.6827 34.7756 43.8858 34.098 43.2978 33.2116C42.7182 32.3253 42.4284 31.2386 42.4284 29.9517C42.4284 28.8437 42.6415 27.9318 43.0676 27.2159C43.4938 26.5 44.0691 25.9332 44.7935 25.5156C45.5179 25.098 46.3276 24.7827 47.2225 24.5696C48.1174 24.3565 49.0293 24.1946 49.9583 24.0838C51.1344 23.9474 52.089 23.8366 52.8219 23.7514C53.5549 23.6577 54.0875 23.5085 54.4199 23.304C54.7523 23.0994 54.9185 22.767 54.9185 22.3068V22.2173C54.9185 21.1009 54.6032 20.2358 53.9725 19.6222C53.3503 19.0085 52.4213 18.7017 51.1855 18.7017C49.8986 18.7017 48.8844 18.9872 48.1429 19.5582C47.41 20.1207 46.9029 20.7472 46.6216 21.4375L43.0293 20.6193C43.4554 19.4261 44.0776 18.4631 44.8958 17.7301C45.7225 16.9886 46.6728 16.4517 47.7466 16.1193C48.8205 15.7784 49.9498 15.608 51.1344 15.608C51.9185 15.608 52.7495 15.7017 53.6273 15.8892C54.5137 16.0682 55.3404 16.4006 56.1074 16.8864C56.883 17.3722 57.5179 18.0668 58.0123 18.9702C58.5066 19.8651 58.7537 21.0284 58.7537 22.4602V35.5H55.0208V32.8153H54.8674C54.6202 33.3097 54.2495 33.7955 53.7551 34.2727C53.2608 34.75 52.6259 35.1463 51.8503 35.4616C51.0748 35.777 50.1458 35.9347 49.0634 35.9347ZM49.8944 32.8665C50.9512 32.8665 51.8546 32.6577 52.6046 32.2401C53.3631 31.8224 53.9384 31.277 54.3304 30.6037C54.731 29.9219 54.9313 29.1932 54.9313 28.4176V25.8864C54.7949 26.0227 54.5307 26.1506 54.1387 26.2699C53.7551 26.3807 53.3162 26.4787 52.8219 26.5639C52.3276 26.6406 51.8461 26.7131 51.3773 26.7812C50.9086 26.8409 50.5165 26.892 50.2012 26.9347C49.4597 27.0284 48.7821 27.1861 48.1685 27.4077C47.5634 27.6293 47.0776 27.9489 46.7111 28.3665C46.3532 28.7756 46.1742 29.321 46.1742 30.0028C46.1742 30.9489 46.5236 31.6648 47.2225 32.1506C47.9213 32.6278 48.812 32.8665 49.8944 32.8665ZM65.5581 42.8636C64.987 42.8636 64.4672 42.8168 63.9984 42.723C63.5297 42.6378 63.1802 42.544 62.9501 42.4418L63.8706 39.3097C64.5694 39.4972 65.1916 39.5781 65.737 39.5526C66.2825 39.527 66.764 39.3224 67.1816 38.9389C67.6078 38.5554 67.9828 37.929 68.3066 37.0597L68.7797 35.7557L61.595 15.8636H65.6859L70.6589 31.1023H70.8635L75.8365 15.8636H79.9402L71.8478 38.1207C71.4728 39.1435 70.9956 40.0085 70.416 40.7159C69.8365 41.4318 69.1461 41.9688 68.345 42.3267C67.5439 42.6847 66.6149 42.8636 65.5581 42.8636ZM91.1358 35.8963C89.2949 35.8963 87.6884 35.4744 86.3162 34.6307C84.9441 33.7869 83.8787 32.6065 83.1202 31.0895C82.3617 29.5724 81.9824 27.7997 81.9824 25.7713C81.9824 23.7344 82.3617 21.9531 83.1202 20.4276C83.8787 18.902 84.9441 17.7173 86.3162 16.8736C87.6884 16.0298 89.2949 15.608 91.1358 15.608C92.9767 15.608 94.5833 16.0298 95.9554 16.8736C97.3276 17.7173 98.3929 18.902 99.1515 20.4276C99.91 21.9531 100.289 23.7344 100.289 25.7713C100.289 27.7997 99.91 29.5724 99.1515 31.0895C98.3929 32.6065 97.3276 33.7869 95.9554 34.6307C94.5833 35.4744 92.9767 35.8963 91.1358 35.8963ZM91.1486 32.6875C92.3418 32.6875 93.3304 32.3722 94.1145 31.7415C94.8986 31.1108 95.4782 30.2713 95.8532 29.223C96.2367 28.1747 96.4284 27.0199 96.4284 25.7585C96.4284 24.5057 96.2367 23.3551 95.8532 22.3068C95.4782 21.25 94.8986 20.402 94.1145 19.7628C93.3304 19.1236 92.3418 18.804 91.1486 18.804C89.9469 18.804 88.9498 19.1236 88.1571 19.7628C87.373 20.402 86.7892 21.25 86.4057 22.3068C86.0307 23.3551 85.8432 24.5057 85.8432 25.7585C85.8432 27.0199 86.0307 28.1747 86.4057 29.223C86.7892 30.2713 87.373 31.1108 88.1571 31.7415C88.9498 32.3722 89.9469 32.6875 91.1486 32.6875ZM104.556 35.5V15.8636H108.251V18.983H108.455C108.813 17.9261 109.444 17.0952 110.347 16.4901C111.259 15.8764 112.29 15.5696 113.441 15.5696C113.68 15.5696 113.961 15.5781 114.285 15.5952C114.617 15.6122 114.877 15.6335 115.064 15.6591V19.3153C114.911 19.2727 114.638 19.2259 114.246 19.1747C113.854 19.1151 113.462 19.0852 113.07 19.0852C112.167 19.0852 111.361 19.277 110.654 19.6605C109.955 20.0355 109.401 20.5597 108.992 21.233C108.583 21.8977 108.378 22.6562 108.378 23.5085V35.5H104.556ZM126.132 35.8963C124.198 35.8963 122.531 35.483 121.134 34.6562C119.744 33.821 118.671 32.6491 117.912 31.1406C117.162 29.6236 116.787 27.8466 116.787 25.8097C116.787 23.7983 117.162 22.0256 117.912 20.4915C118.671 18.9574 119.727 17.7599 121.083 16.8991C122.446 16.0384 124.04 15.608 125.864 15.608C126.972 15.608 128.046 15.7912 129.085 16.1577C130.125 16.5241 131.058 17.0994 131.885 17.8835C132.712 18.6676 133.364 19.6861 133.841 20.9389C134.318 22.1832 134.557 23.696 134.557 25.4773V26.8324H118.948V23.9688H130.811C130.811 22.9631 130.607 22.0724 130.198 21.2969C129.789 20.5128 129.213 19.8949 128.472 19.4432C127.739 18.9915 126.878 18.7656 125.889 18.7656C124.816 18.7656 123.878 19.0298 123.077 19.5582C122.284 20.0781 121.671 20.7599 121.236 21.6037C120.81 22.4389 120.597 23.3466 120.597 24.3267V26.5639C120.597 27.8764 120.827 28.9929 121.287 29.9134C121.756 30.8338 122.408 31.5369 123.243 32.0227C124.078 32.5 125.054 32.7386 126.171 32.7386C126.895 32.7386 127.556 32.6364 128.152 32.4318C128.749 32.2187 129.264 31.9034 129.699 31.4858C130.134 31.0682 130.466 30.5526 130.696 29.9389L134.314 30.5909C134.024 31.6562 133.504 32.5895 132.754 33.3906C132.013 34.1832 131.08 34.8011 129.955 35.2443C128.838 35.679 127.564 35.8963 126.132 35.8963ZM153.513 20.6577L150.048 21.2713C149.903 20.8281 149.673 20.4062 149.358 20.0057C149.051 19.6051 148.633 19.277 148.105 19.0213C147.577 18.7656 146.916 18.6378 146.123 18.6378C145.041 18.6378 144.138 18.8807 143.413 19.3665C142.689 19.8437 142.327 20.4616 142.327 21.2202C142.327 21.8764 142.569 22.4048 143.055 22.8054C143.541 23.206 144.325 23.5341 145.407 23.7898L148.527 24.5057C150.334 24.9233 151.68 25.5668 152.567 26.4361C153.453 27.3054 153.896 28.4347 153.896 29.8239C153.896 31 153.555 32.0483 152.873 32.9688C152.2 33.8807 151.258 34.5966 150.048 35.1165C148.846 35.6364 147.453 35.8963 145.868 35.8963C143.669 35.8963 141.875 35.4276 140.486 34.4901C139.096 33.544 138.244 32.2017 137.929 30.4631L141.623 29.9006C141.854 30.8636 142.327 31.5923 143.042 32.0866C143.758 32.5724 144.692 32.8153 145.842 32.8153C147.095 32.8153 148.096 32.5554 148.846 32.0355C149.596 31.5071 149.971 30.8636 149.971 30.1051C149.971 29.4915 149.741 28.9759 149.281 28.5582C148.829 28.1406 148.135 27.8253 147.197 27.6122L143.873 26.8835C142.041 26.4659 140.686 25.8011 139.808 24.8892C138.939 23.9773 138.504 22.8224 138.504 21.4247C138.504 20.2656 138.828 19.2514 139.476 18.3821C140.123 17.5128 141.018 16.8352 142.16 16.3494C143.302 15.8551 144.611 15.608 146.085 15.608C148.207 15.608 149.878 16.0682 151.096 16.9886C152.315 17.9006 153.121 19.1236 153.513 20.6577Z" fill="#FF9807"/>
<path d="M168.08 38.1226V9.28256H177.8C180.04 9.28256 181.933 9.54922 183.48 10.0826C185.053 10.6159 186.24 11.4426 187.04 12.5626C187.867 13.6826 188.28 15.1226 188.28 16.8826C188.28 17.8692 188.08 18.7759 187.68 19.6026C187.28 20.4292 186.693 21.1492 185.92 21.7626C185.173 22.3759 184.227 22.8692 183.08 23.2426C185.08 23.6692 186.587 24.4292 187.6 25.5226C188.613 26.5892 189.12 27.9892 189.12 29.7226C189.12 31.4292 188.693 32.9092 187.84 34.1626C187.013 35.4159 185.827 36.3892 184.28 37.0826C182.733 37.7759 180.893 38.1226 178.76 38.1226H168.08ZM173 34.3226H178.68C180.6 34.3226 182.013 33.8959 182.92 33.0426C183.827 32.1892 184.28 31.0426 184.28 29.6026C184.28 28.2426 183.827 27.1892 182.92 26.4426C182.013 25.6692 180.6 25.2826 178.68 25.2826H173V34.3226ZM173 21.9226H177.56C178.787 21.9226 179.827 21.7626 180.68 21.4426C181.56 21.1226 182.227 20.6292 182.68 19.9626C183.16 19.2959 183.4 18.4692 183.4 17.4826C183.4 15.9092 182.947 14.7892 182.04 14.1226C181.133 13.4292 179.72 13.0826 177.8 13.0826H173V21.9226ZM165.12 38.1226V36.0426C165.12 35.7226 165.2 35.4826 165.36 35.3226C165.547 35.1359 165.8 35.0159 166.12 34.9626L168.64 34.4426L169.16 38.1226H165.12ZM169.16 9.28256L168.64 12.9626L166.12 12.4426C165.8 12.3626 165.547 12.2426 165.36 12.0826C165.2 11.8959 165.12 11.6426 165.12 11.3226V9.28256H169.16ZM192.73 38.1226V9.28256H195.29C195.717 9.28256 196.037 9.33589 196.25 9.44256C196.49 9.52256 196.73 9.73589 196.97 10.0826L212.57 30.2026C212.517 29.7759 212.477 29.3626 212.45 28.9626C212.45 28.5626 212.45 28.1892 212.45 27.8426V9.28256H216.77V38.1226H214.25C213.877 38.1226 213.557 38.0692 213.29 37.9626C213.05 37.8292 212.797 37.5892 212.53 37.2426L196.97 17.2026C196.997 17.6292 197.01 18.0026 197.01 18.3226C197.037 18.6426 197.05 19.0026 197.05 19.4026V38.1226H192.73ZM189.77 38.1226V36.0426C189.77 35.7226 189.85 35.4826 190.01 35.3226C190.197 35.1359 190.45 35.0159 190.77 34.9626L193.29 34.4426L193.81 38.1226H189.77ZM196.29 38.1226L196.77 34.4426L199.29 34.9626C199.61 35.0159 199.85 35.1359 200.01 35.3226C200.197 35.4826 200.29 35.7226 200.29 36.0426V38.1226H196.29ZM193.81 9.28256L193.29 12.9626L190.77 12.4426C190.45 12.3626 190.197 12.2426 190.01 12.0826C189.85 11.8959 189.77 11.6426 189.77 11.3226V9.28256H193.81ZM213.25 9.28256L212.73 12.9626L210.21 12.4426C209.89 12.3626 209.637 12.2426 209.45 12.0826C209.29 11.8959 209.21 11.6426 209.21 11.3226V9.28256H213.25ZM219.73 9.28256V11.3226C219.73 11.6426 219.637 11.8959 219.45 12.0826C219.29 12.2426 219.063 12.3626 218.77 12.4426L216.21 12.9626L215.73 9.28256H219.73ZM219.434 38.1226L230.834 9.28256H235.834L247.234 38.1226H243.434C243.007 38.1226 242.647 38.0159 242.354 37.8026C242.087 37.5892 241.9 37.3226 241.794 37.0026L234.314 16.9626C234.18 16.5092 234.02 16.0292 233.834 15.5226C233.674 15.0159 233.5 14.4426 233.314 13.8026C233.154 14.4426 232.98 15.0159 232.794 15.5226C232.634 16.0292 232.474 16.5226 232.314 17.0026L224.874 37.0026C224.767 37.2959 224.567 37.5626 224.274 37.8026C224.007 38.0159 223.66 38.1226 223.234 38.1226H219.434ZM222.754 38.1226V35.5226H225.874V38.1226H222.754ZM226.314 29.9626L227.154 26.5226H239.394L240.234 29.9626H226.314ZM240.554 38.1226V35.5226H243.834V38.1226H240.554ZM218.234 38.1226V36.0426C218.234 35.7226 218.314 35.4826 218.474 35.3226C218.66 35.1359 218.9 35.0159 219.194 34.9626L221.754 34.4426L222.234 38.1226H218.234ZM224.074 38.1226L224.554 34.4426L227.114 34.9626C227.407 35.0159 227.634 35.1359 227.794 35.3226C227.98 35.4826 228.074 35.7226 228.074 36.0426V38.1226H224.074ZM238.594 38.1226V36.0426C238.594 35.7226 238.674 35.4826 238.834 35.3226C238.994 35.1359 239.234 35.0159 239.554 34.9626L242.114 34.4426L242.594 38.1226H238.594ZM244.394 38.1226L244.874 34.4426L247.434 34.9626C247.754 35.0159 247.994 35.1359 248.154 35.3226C248.314 35.4826 248.394 35.7226 248.394 36.0426V38.1226H244.394Z" fill="#109ED4"/>
<circle cx="281.235" cy="22.5" r="22.5" fill="#109ED4"/>
<g clip-path="url(#clip0_0_1)">
<path d="M294.735 16.0621V16.0622V17.9581H291.797H291.297V18.4581V27.6248V28.1248H291.797H293.589V29.4165H269.38V28.1248H271.172H271.672V27.6248V18.4581V17.9581H271.172H268.235V16.0622V16.0621C268.235 15.5344 268.377 15.0164 268.646 14.5625C268.915 14.1087 269.302 13.7358 269.765 13.483L280.078 7.85813L280.078 7.85778C280.509 7.62176 280.993 7.49805 281.485 7.49805C281.976 7.49805 282.46 7.62176 282.891 7.85778L282.892 7.85813L293.204 13.483C293.204 13.483 293.204 13.483 293.204 13.483C293.668 13.7358 294.054 14.1087 294.323 14.5625C294.593 15.0164 294.735 15.5344 294.735 16.0621ZM272.964 27.6248V28.1248H273.464H276.901H277.401V27.6248V18.4581V17.9581H276.901H273.464H272.964V18.4581V27.6248ZM279.193 17.9581H278.693V18.4581V27.6248V28.1248H279.193H283.776H284.276V27.6248V18.4581V17.9581H283.776H279.193ZM290.005 18.4581V17.9581H289.505H286.068H285.568V18.4581V27.6248V28.1248H286.068H289.505H290.005V27.6248V18.4581ZM292.585 14.6172L282.273 8.99235C282.273 8.99234 282.273 8.99233 282.273 8.99231C282.031 8.86039 281.76 8.79126 281.485 8.79126C281.209 8.79126 280.938 8.86039 280.696 8.99231C280.696 8.99233 280.696 8.99234 280.696 8.99235L270.384 14.6172L270.384 14.6172C270.124 14.7589 269.908 14.9678 269.757 15.2221C269.606 15.4764 269.526 15.7666 269.526 16.0622C269.526 16.0622 269.526 16.0623 269.526 16.0623V16.1665V16.6665H270.026H292.943H293.443V16.1665V16.0623C293.443 16.0623 293.443 16.0622 293.443 16.0622C293.443 15.7666 293.363 15.4764 293.213 15.2221C293.062 14.9678 292.845 14.7589 292.586 14.6172L292.585 14.6172ZM294.735 32.7081V33.9998H268.235V32.7081H294.735Z" fill="white" stroke="white"/>
</g>
<defs>
<clipPath id="clip0_0_1">
<rect width="27.5" height="27.5" fill="white" transform="translate(267.735 7)"/>
</clipPath>
</defs>
</svg>
